<?xml version="1.0" standalone="no"?>
<!DOCTYPE svg PUBLIC "-//W3C//DTD SVG 20010904//EN"
 "http://www.w3.org/TR/2001/REC-SVG-20010904/DTD/svg10.dtd">
<svg version="1.0" xmlns="http://www.w3.org/2000/svg"
 width="828.000000pt" height="828.000000pt" viewBox="0 0 828.000000 828.000000"
 preserveAspectRatio="xMidYMid meet">
<metadata>
Created by potrace 1.14, written by Peter Selinger 2001-2017
</metadata>
<g transform="translate(0.000000,828.000000) scale(0.100000,-0.100000)"
fill="#000000" stroke="none">
<path d="M4335 7439 c-16 -10 -39 -16 -50 -13 -28 7 -196 -51 -207 -71 -10
-17 -44 -20 -53 -5 -7 12 -62 8 -114 -9 -19 -6 -37 -9 -39 -6 -2 2 -15 -7 -29
-21 -13 -13 -28 -24 -34 -24 -5 0 -25 -16 -44 -35 -22 -21 -41 -32 -50 -28 -9
3 -15 1 -13 -4 2 -5 -23 -34 -54 -65 -66 -66 -87 -98 -63 -98 8 0 15 5 15 10
0 6 8 10 17 10 13 0 7 -9 -20 -32 -20 -18 -37 -38 -37 -44 0 -16 34 -28 38
-15 2 6 16 9 30 6 21 -4 23 -3 7 3 -18 8 -18 10 8 25 15 10 39 25 55 34 15 10
33 16 41 15 7 -2 10 1 6 8 -4 6 -1 18 6 26 9 11 14 12 20 3 8 -13 18 -7 89 48
24 19 30 22 20 8 -8 -11 -20 -23 -26 -27 -7 -4 -21 -24 -32 -43 -17 -27 -18
-36 -8 -42 16 -10 28 -53 15 -53 -6 0 -15 -15 -21 -32 -7 -18 -27 -61 -45 -96
-25 -48 -33 -74 -33 -115 1 -48 2 -50 15 -33 8 11 15 26 15 33 0 8 9 23 20 35
13 14 18 29 14 44 -7 28 15 43 28 20 9 -16 11 -16 29 0 18 16 19 16 19 -2 0
-11 -5 -25 -12 -32 -9 -9 -8 -16 5 -30 18 -20 23 -37 8 -28 -16 11 -20 -21 -4
-43 10 -16 13 -33 8 -64 -6 -33 -4 -39 5 -30 7 6 12 38 13 72 0 34 3 61 7 61
4 0 9 -63 12 -141 3 -107 7 -142 18 -149 11 -7 11 -12 2 -23 -18 -21 13 -80
38 -72 24 8 37 -29 19 -51 -11 -13 -10 -18 4 -25 9 -6 17 -21 17 -34 0 -14 9
-34 20 -45 11 -11 20 -29 20 -41 0 -11 5 -17 10 -14 6 3 10 -4 10 -16 0 -13
12 -40 26 -61 15 -21 23 -42 19 -46 -4 -4 -10 -1 -12 6 -3 7 -20 19 -40 27
-19 8 -32 19 -29 24 13 21 -14 20 -33 0 -20 -22 -21 -22 -41 -4 -19 18 -20 18
-20 -3 0 -15 6 -22 19 -22 12 0 25 -13 35 -35 13 -26 23 -35 42 -35 15 0 23
-4 19 -10 -4 -6 -1 -17 5 -25 6 -8 9 -24 5 -35 -5 -17 -3 -21 12 -19 27 5 42
-8 36 -32 -7 -27 39 -75 95 -100 40 -17 42 -20 42 -61 0 -24 5 -50 10 -58 6
-10 10 -11 10 -2 0 20 17 14 23 -9 5 -18 11 -21 34 -16 30 6 63 -7 50 -19 -4
-4 -20 -7 -37 -7 -37 0 -29 -14 24 -38 43 -19 169 -26 249 -13 58 10 44 24
-25 25 -71 0 -187 20 -188 32 0 4 0 11 0 16 0 4 36 11 81 14 45 4 114 18 154
32 55 19 104 27 195 32 66 3 123 9 125 14 3 4 -26 10 -63 14 -38 4 -75 11 -83
17 -11 7 -9 9 8 5 39 -9 36 13 -4 30 -61 25 -89 31 -104 22 -10 -6 -4 -12 21
-23 27 -12 30 -15 13 -16 -12 0 -34 5 -50 11 -15 7 -44 15 -63 19 l-35 8 44 1
c86 2 28 16 -70 17 -54 0 -99 3 -99 5 3 42 12 47 88 54 43 3 97 2 121 -3 48
-11 71 -7 71 13 0 7 6 15 13 18 9 3 9 7 -2 20 -9 11 -10 17 -2 17 6 0 11 -4
11 -10 0 -5 6 -10 14 -10 8 0 16 -7 18 -15 2 -10 8 -12 17 -6 12 8 10 16 -12
45 -28 37 -35 66 -15 66 6 0 2 9 -10 20 -25 24 -33 25 -26 5 4 -8 3 -15 -1
-15 -10 0 -35 27 -35 39 0 6 -7 11 -15 11 -18 0 -19 -12 -3 -28 9 -9 9 -15 -1
-24 -10 -11 -15 -9 -26 6 -8 10 -12 24 -8 30 3 6 3 8 -2 4 -4 -4 -21 4 -37 17
-30 26 -48 25 -48 -1 0 -8 -3 -14 -6 -14 -11 0 -34 29 -34 43 0 8 -9 22 -20
32 -12 11 -28 35 -36 54 -9 20 -20 44 -25 53 -5 10 -9 26 -9 35 0 10 -7 27
-15 37 -8 10 -12 23 -9 28 3 5 0 16 -7 24 -10 12 -9 16 9 21 25 6 29 21 7 29
-8 4 -15 17 -15 31 0 13 -11 43 -24 66 -30 52 -63 204 -47 220 12 12 31 -30
34 -78 3 -42 31 -72 51 -55 13 10 17 8 26 -15 13 -34 13 -48 -1 -62 -8 -8 -5
-13 10 -18 12 -3 26 -15 32 -26 6 -12 17 -18 25 -15 9 4 19 -4 26 -19 6 -14
15 -25 21 -25 5 0 6 7 1 18 -4 9 -9 37 -10 62 -1 33 -6 46 -18 48 -13 3 -15
-2 -10 -22 3 -15 2 -26 -4 -26 -17 0 -35 29 -29 49 3 11 1 21 -3 23 -5 2 -12
17 -15 33 l-7 30 28 -37 c15 -21 32 -38 38 -38 6 0 6 4 -1 11 -6 6 -9 18 -6
25 3 8 0 21 -7 29 -6 8 -9 23 -5 35 4 12 1 27 -5 35 -8 9 -8 20 -2 31 7 13 12
6 23 -35 10 -39 15 -48 20 -34 7 17 8 17 8 0 1 -11 6 -16 14 -13 6 3 20 9 30
12 11 4 16 13 12 23 -3 12 1 17 15 18 24 2 25 -3 5 -23 -20 -20 -19 -52 3 -94
11 -19 22 -48 26 -65 8 -32 23 -55 37 -55 15 0 10 43 -10 87 -14 29 -16 43 -8
46 8 2 7 13 -4 35 -17 35 -14 95 5 89 6 -2 9 -12 8 -22 -3 -16 -1 -17 11 -6
14 11 14 14 -1 31 -10 13 -20 16 -27 10 -7 -6 -15 -7 -18 -3 -4 3 -13 0 -22
-7 -13 -10 -15 -9 -15 8 0 24 21 34 75 36 35 2 43 -2 60 -28 11 -17 30 -35 43
-41 12 -5 20 -15 18 -21 -2 -6 2 -11 11 -10 9 0 20 -13 26 -33 13 -36 37 -54
37 -27 0 18 15 21 25 6 3 -5 12 -10 18 -9 9 0 9 2 0 6 -20 8 -15 23 7 23 25 0
25 12 1 34 -11 10 -25 14 -36 10 -15 -6 -17 -3 -11 20 5 20 2 28 -11 33 -29
11 -74 83 -52 83 6 0 8 4 4 10 -3 5 -13 7 -23 4 -14 -5 -14 -4 -3 4 15 10 13
23 -16 102 -3 8 11 -8 30 -37 20 -29 39 -63 43 -75 4 -13 16 -35 28 -51 62
-81 84 -105 90 -99 4 3 4 0 1 -9 -3 -9 9 -32 30 -56 19 -23 35 -45 35 -49 0
-4 11 -22 25 -40 29 -38 30 -41 10 -61 -14 -13 -17 -11 -31 22 -8 20 -20 35
-27 32 -23 -7 -19 -64 8 -118 21 -40 25 -60 20 -88 -6 -29 -8 -32 -16 -18 -6
9 -19 17 -30 17 -11 0 -29 5 -40 10 -25 14 -24 -2 2 -26 19 -17 59 -92 59
-111 0 -20 52 -83 69 -83 22 0 84 -61 119 -115 14 -22 35 -52 46 -66 21 -25
101 -181 126 -246 6 -17 10 -42 9 -55 -2 -12 3 -40 10 -61 13 -38 14 -39 59
-35 l47 3 8 -60 c5 -33 10 -80 10 -105 3 -61 -23 -65 -78 -11 -29 29 -43 36
-52 29 -9 -7 -17 -7 -28 2 -8 6 -22 10 -31 8 -14 -2 -13 -7 9 -28 31 -29 33
-37 10 -42 -14 -3 -7 -11 24 -31 24 -15 49 -36 55 -47 7 -12 31 -33 53 -48 47
-32 55 -41 48 -58 -2 -7 5 -19 16 -26 28 -17 26 -28 -4 -28 -25 0 -37 -20 -12
-21 6 0 -14 -8 -45 -18 -88 -29 -138 -9 -179 72 -12 23 -27 37 -38 37 -24 0
-32 -19 -19 -43 13 -25 3 -32 -26 -19 -30 13 -36 8 -36 -37 0 -37 -15 -88 -38
-128 -13 -24 -7 -99 9 -109 5 -3 9 -14 9 -25 0 -25 20 -24 100 4 89 31 150 66
143 83 -3 9 2 14 14 14 11 0 42 21 69 47 69 66 90 80 132 88 20 4 44 13 55 20
18 13 18 13 -2 20 -11 3 -25 4 -31 0 -5 -3 -22 1 -37 9 -27 15 -25 15 52 14
57 -1 90 4 112 16 57 29 70 20 29 -20 -25 -24 -42 -34 -54 -29 -9 3 -13 3 -9
-1 4 -4 2 -13 -3 -19 -8 -9 -6 -14 5 -19 19 -7 19 -24 -1 -82 -11 -33 -13 -49
-5 -57 18 -18 12 -44 -11 -51 -22 -6 -22 -7 -5 -20 17 -13 17 -15 -6 -42 -27
-31 -106 -59 -121 -44 -15 15 -23 12 -29 -10 -7 -27 -21 -25 -35 4 -12 27 -1
36 53 41 61 6 115 25 115 42 0 13 -9 15 -56 9 -31 -3 -74 -15 -97 -26 -22 -11
-49 -20 -59 -20 -10 0 -18 -7 -18 -16 0 -11 6 -14 20 -9 16 5 20 2 20 -19 0
-31 -19 -44 -35 -23 -11 15 -13 15 -28 0 -14 -14 -18 -14 -33 -2 -13 11 -18
11 -21 2 -6 -17 -40 -17 -46 0 -3 8 -10 6 -21 -8 -15 -19 -17 -19 -30 -2 -14
18 -15 18 -25 0 -8 -15 -13 -16 -30 -6 -17 11 -22 10 -30 -4 -8 -14 -12 -15
-25 -4 -13 11 -17 11 -22 -4 -5 -12 -14 -15 -30 -11 -18 5 -24 2 -24 -10 0
-12 -6 -15 -21 -11 -13 3 -22 0 -26 -10 -4 -10 -13 -13 -29 -9 -18 5 -24 2
-24 -10 0 -12 -6 -15 -21 -11 -13 3 -22 0 -26 -10 -4 -10 -13 -13 -29 -9 -15
4 -24 2 -24 -5 0 -7 -9 -9 -25 -5 -17 4 -27 2 -31 -7 -3 -9 -14 -12 -30 -9
-13 2 -24 0 -24 -6 0 -6 -8 -8 -19 -5 -10 3 -22 0 -25 -6 -4 -6 -16 -11 -27
-11 -10 0 -19 -5 -19 -11 0 -6 -7 -9 -15 -6 -8 4 -17 2 -21 -4 -3 -6 -17 -15
-31 -20 -16 -6 -23 -14 -19 -24 4 -12 0 -14 -19 -9 -20 5 -25 2 -25 -14 0 -16
-5 -19 -21 -15 -18 5 -20 3 -14 -16 8 -26 -12 -29 -31 -3 -13 16 -13 16 -15
-3 -1 -11 -1 -26 0 -32 1 -7 -5 -13 -14 -13 -8 0 -15 5 -15 11 0 5 -5 7 -11 3
-6 -3 -8 -15 -6 -26 5 -17 2 -18 -24 -13 -25 6 -29 4 -29 -15 0 -17 -4 -20
-21 -15 -15 5 -22 2 -26 -14 -4 -16 -11 -20 -24 -16 -12 4 -21 1 -25 -9 -3 -9
-14 -16 -24 -16 -11 0 -22 -5 -26 -11 -3 -6 -14 -9 -24 -6 -11 3 -21 -2 -24
-10 -4 -9 -13 -13 -21 -9 -9 3 -18 -1 -22 -10 -3 -9 -13 -14 -24 -11 -11 3
-23 -2 -28 -10 -5 -10 -15 -14 -24 -10 -9 3 -19 2 -22 -3 -4 -6 -17 -10 -31
-10 -15 0 -24 -6 -24 -16 0 -14 -3 -14 -15 -4 -13 11 -18 10 -29 -5 -7 -10
-18 -15 -23 -12 -6 4 -16 0 -23 -8 -7 -8 -16 -13 -20 -10 -4 3 -13 -2 -19 -9
-8 -9 -9 -16 -2 -20 17 -11 110 5 122 21 9 10 14 11 19 2 5 -7 20 -3 47 15 31
21 45 25 63 18 33 -12 133 9 195 41 56 28 241 107 252 107 5 0 29 11 54 24 65
32 89 37 96 20 3 -9 1 -20 -6 -27 -18 -18 -14 -50 6 -43 9 4 37 11 61 17 59
13 65 18 50 37 -12 15 -11 16 4 3 13 -9 31 -11 63 -7 53 8 57 18 13 31 -18 6
-37 20 -43 31 -6 12 -16 29 -23 37 -11 12 -8 17 19 26 35 12 53 6 45 -14 -6
-17 43 -67 60 -61 8 3 16 1 19 -5 7 -11 47 -5 150 21 107 28 156 34 165 20 6
-9 13 -9 29 0 30 16 64 4 56 -20 -5 -17 -2 -18 29 -13 27 4 47 -1 89 -25 29
-17 62 -30 72 -29 10 1 20 -4 22 -10 3 -7 -4 -13 -14 -14 -13 -1 -11 -3 7 -9
l25 -8 -24 -1 c-17 -1 -22 -5 -17 -17 4 -9 2 -22 -3 -28 -17 -21 -18 -236 -1
-236 6 0 10 9 10 20 0 11 5 20 10 20 12 0 12 2 -1 -60 -6 -27 -15 -50 -20 -50
-4 0 -6 -7 -3 -15 8 -20 -45 -212 -62 -230 -8 -7 -14 -16 -14 -20 0 -14 -112
-145 -120 -140 -5 3 -7 22 -5 43 1 20 4 46 4 57 2 19 2 19 15 2 14 -18 14 -18
20 0 3 10 8 51 11 92 4 41 8 78 10 81 8 13 -14 32 -39 33 -14 1 -26 7 -26 14
0 15 -59 61 -130 102 -30 18 -62 36 -70 41 -38 23 -91 42 -98 35 -4 -4 -2 -10
4 -12 17 -6 82 -70 94 -93 5 -10 10 -27 10 -38 0 -30 29 -120 44 -134 7 -8 18
-30 25 -50 10 -31 27 -48 48 -48 3 0 3 16 0 35 -4 26 -2 35 8 35 16 0 27 -14
18 -24 -4 -4 -8 -13 -9 -21 -1 -8 -9 -29 -18 -46 -20 -40 -20 -49 0 -49 11 0
14 6 9 20 -4 14 -2 20 8 20 9 0 18 6 20 13 4 9 6 9 6 -1 1 -15 -59 -136 -97
-196 -81 -129 -145 -218 -181 -250 -21 -19 -126 -57 -218 -78 -29 -7 -53 -16
-53 -19 0 -4 -16 -10 -35 -13 -19 -4 -35 -12 -35 -18 0 -6 11 -8 30 -4 22 4
30 2 30 -8 0 -17 34 -27 69 -20 14 3 48 25 75 50 27 24 52 42 54 39 2 -2 -3
-22 -12 -45 -19 -49 -19 -50 -2 -50 7 0 29 19 49 43 19 23 60 68 91 98 31 31
58 65 61 77 2 12 14 43 27 69 19 37 37 56 81 82 58 35 179 163 285 305 57 75
158 168 210 193 17 8 32 19 32 23 0 4 12 11 27 15 16 4 33 11 40 16 19 17 126
69 140 69 7 0 13 5 13 10 0 6 5 10 12 10 11 0 113 37 173 64 44 19 127 45 177
55 124 26 215 81 133 81 -22 0 -47 8 -62 20 l-26 20 32 -6 c32 -7 40 3 19 24
-9 9 -8 12 4 12 9 0 18 -5 20 -11 6 -19 68 -22 68 -4 0 24 20 17 21 -7 1 -17
2 -19 6 -5 2 9 9 17 14 17 5 0 9 7 9 15 0 22 17 18 30 -5 11 -20 13 -19 45 17
19 21 35 41 35 46 0 4 7 7 15 7 26 0 29 48 6 95 -22 44 -31 95 -11 65 9 -13
11 -13 19 -1 7 11 11 6 16 -21 4 -19 6 -41 4 -49 -1 -8 1 -22 4 -31 4 -10 9
-26 12 -35 4 -12 9 -13 17 -5 8 8 9 18 0 36 -10 22 -8 25 14 30 15 4 24 14 24
27 0 11 5 17 10 14 6 -4 8 -11 5 -16 -4 -5 3 -9 13 -9 20 0 32 25 32 69 0 19
3 21 14 11 8 -6 16 -24 18 -38 3 -23 6 -20 14 18 9 40 13 45 36 42 15 -1 30 3
34 9 4 8 3 9 -4 5 -7 -4 -12 -3 -12 3 0 6 -12 14 -26 17 -15 4 -23 12 -20 19
7 19 -5 27 -21 13 -7 -6 -17 -8 -20 -4 -4 4 -1 11 7 16 19 12 4 28 -30 32 -34
5 -50 16 -50 36 0 18 -55 82 -71 82 -5 0 -9 7 -9 15 0 8 -6 15 -14 15 -17 0
-27 -24 -20 -47 5 -15 4 -16 -5 -3 -6 8 -11 25 -11 37 0 12 -5 25 -10 28 -7 4
-6 13 1 27 12 23 -3 40 -28 31 -7 -3 -13 1 -13 9 0 17 -59 81 -110 120 -19 15
-30 27 -23 28 6 0 18 -6 25 -12 7 -7 25 -19 40 -27 14 -7 29 -22 31 -32 3 -11
12 -19 21 -19 9 0 16 -7 16 -15 0 -8 4 -15 9 -15 5 0 23 -14 40 -31 25 -24 34
-29 45 -20 11 9 15 9 19 -1 3 -7 3 3 0 22 -7 43 -12 49 -23 30 -7 -11 -12 -9
-29 11 -11 13 -20 29 -20 34 0 6 8 0 18 -12 24 -28 35 -29 28 -3 -9 35 9 22
31 -24 12 -24 22 -48 22 -53 0 -13 44 -53 58 -53 12 0 16 -12 13 -42 -2 -12 3
-16 12 -12 8 3 17 -2 20 -10 4 -9 2 -16 -3 -16 -18 0 -10 -18 10 -23 11 -3 24
-17 30 -31 5 -14 14 -26 20 -26 5 0 10 -6 10 -12 0 -21 63 -76 95 -84 l30 -7
-27 26 c-16 14 -28 36 -28 49 1 22 1 22 18 -4 23 -38 32 -35 32 12 0 29 -5 42
-20 50 -16 8 -20 8 -20 -4 0 -8 -4 -18 -10 -21 -5 -3 -9 2 -8 12 3 25 -23 133
-33 133 -4 0 -10 -8 -12 -17 -3 -10 -6 -2 -7 17 -1 19 -4 29 -7 23 -7 -18 -30
7 -35 38 -1 13 -13 28 -25 35 -18 8 -20 13 -10 24 10 10 7 11 -15 6 -21 -5
-28 -2 -33 15 -9 27 1 36 25 21 12 -7 21 -8 25 -2 10 16 -5 31 -26 25 -13 -4
-19 -2 -19 9 0 19 -96 76 -187 110 -39 15 -74 34 -77 42 -3 7 -17 14 -31 14
-14 0 -25 6 -25 13 0 11 11 12 56 3 38 -6 51 -12 38 -16 -16 -6 -15 -7 5 -13
33 -8 49 1 45 26 -2 12 2 4 9 -18 16 -47 60 -77 172 -116 22 -8 43 -18 47 -24
4 -5 10 -6 14 -2 12 11 -28 48 -45 42 -9 -3 -5 4 9 15 l25 20 -24 0 c-19 0
-22 3 -14 11 12 12 0 46 -22 61 -5 4 -6 10 -3 14 7 7 41 -17 100 -72 20 -19
41 -34 47 -34 5 0 18 -11 29 -25 22 -28 32 -32 32 -11 0 8 -15 31 -34 50 -18
20 -33 44 -32 54 0 9 -9 21 -21 27 -14 6 -23 19 -23 32 0 14 -6 23 -15 23 -8
0 -15 4 -15 9 0 5 -25 19 -55 32 -30 13 -55 29 -55 35 0 13 -48 7 -67 -9 -9
-6 -13 -6 -13 2 0 19 -45 12 -58 -9 -11 -18 -9 -24 13 -44 21 -19 23 -25 10
-30 -8 -3 -23 4 -34 16 -18 19 -19 23 -6 49 19 36 19 39 -5 39 -10 0 -23 7
-28 17 -6 10 -16 14 -26 10 -19 -7 -21 4 -4 21 9 9 8 12 -5 12 -22 0 -40 -33
-25 -48 9 -9 9 -12 0 -12 -7 0 -12 5 -12 10 0 6 -7 10 -15 10 -8 0 -15 -9 -15
-20 0 -28 -13 -25 -27 7 -14 29 -8 47 7 23 7 -11 12 -12 21 -3 17 17 2 33 -31
33 -19 0 -30 -6 -33 -17 -3 -12 -5 -9 -5 7 0 23 26 105 27 86 2 -16 41 26 41
43 0 14 -2 14 -10 1 -14 -23 -22 -6 -10 25 8 20 14 24 23 17 6 -6 25 -8 40 -5
26 5 28 9 23 36 -3 16 -6 33 -6 38 0 11 -84 12 -94 2 -4 -4 -18 -9 -31 -10
-20 -3 -25 1 -25 17 0 12 4 19 9 16 5 -4 7 3 4 14 -6 23 -43 27 -43 5 0 -8 -7
-15 -15 -15 -18 0 -33 52 -17 58 7 2 12 9 12 15 -1 7 -10 1 -22 -13 -14 -16
-22 -21 -25 -12 -3 6 -17 12 -33 12 -32 0 -60 35 -60 74 0 14 -5 28 -11 32
-12 7 -8 118 5 131 4 4 11 1 17 -7 7 -11 8 -6 3 15 -9 39 -13 47 -24 40 -5 -3
-13 11 -19 31 -6 20 -17 44 -26 54 -19 21 -2 38 20 20 11 -9 14 -8 12 7 -1 25
-27 51 -27 28 0 -26 -18 -16 -29 16 -14 40 -14 39 4 39 8 0 15 5 15 10 0 6 -6
10 -14 10 -8 0 -22 10 -30 22 -15 21 -15 23 5 30 15 6 19 13 14 26 -4 9 -10
26 -12 37 -5 17 -1 16 21 -7 14 -15 26 -33 26 -41 0 -8 27 -37 60 -66 55 -48
73 -82 51 -95 -11 -7 -35 20 -27 32 3 5 -1 9 -9 9 -8 0 -12 -4 -9 -8 2 -4 0
-10 -4 -13 -5 -3 -1 -29 9 -58 10 -29 18 -62 19 -73 0 -12 5 -26 12 -33 8 -8
8 -15 -1 -26 -20 -23 22 -86 56 -86 18 0 24 -4 19 -15 -6 -18 -2 -19 25 -4 16
8 18 14 9 24 -8 9 -8 15 0 20 5 3 10 -1 10 -9 0 -24 27 -19 33 6 5 19 8 20 23
7 16 -13 17 -12 12 8 -6 24 26 65 34 42 5 -15 78 -3 78 13 0 6 -11 8 -30 5
-32 -7 -39 3 -15 23 12 10 18 10 30 0 8 -7 16 -9 16 -4 1 5 2 16 3 24 0 8 11
16 24 18 27 4 28 13 1 30 -13 9 -18 19 -14 32 3 10 1 21 -5 25 -8 5 -8 11 1
21 9 11 9 17 -1 29 -6 8 -9 18 -6 23 7 11 -31 72 -44 72 -6 0 -9 4 -6 9 3 5
-1 26 -10 46 -8 20 -13 39 -10 42 3 3 12 -12 21 -33 21 -51 53 -84 81 -84 13
0 26 -4 29 -10 10 -16 24 -12 47 15 11 13 25 22 30 19 13 -8 38 59 36 99 -1
25 -5 34 -15 30 -8 -3 -13 2 -13 13 0 16 -2 17 -10 4 -8 -12 -10 -11 -10 7 0
23 -13 37 -24 26 -12 -12 -46 -10 -46 4 0 7 -7 13 -15 13 -8 0 -15 -7 -15 -17
0 -15 -1 -15 -18 0 -17 16 -19 16 -32 -8 -7 -13 -17 -22 -22 -19 -4 3 -8 0 -8
-5 0 -6 -4 -11 -10 -11 -5 0 -10 13 -10 30 0 22 -4 28 -15 24 -8 -4 -12 -11
-8 -18 11 -17 12 -36 3 -36 -5 0 -17 14 -27 30 -21 37 -37 39 -31 5 8 -38 -10
-41 -30 -6 -19 35 -29 39 -35 14 -3 -14 -6 -12 -15 10 -6 15 -16 27 -22 27 -5
0 -10 7 -10 15 0 8 -3 15 -7 16 -5 0 -16 2 -25 4 -15 3 -17 -3 -13 -42 2 -25
6 -48 9 -51 9 -8 -15 -33 -25 -26 -5 3 -9 0 -9 -5 0 -10 21 -16 43 -12 4 0 7
-5 7 -11 0 -7 9 -24 20 -38 11 -14 20 -33 20 -42 0 -10 4 -18 9 -18 5 0 11 -7
14 -14 4 -10 1 -13 -8 -10 -10 4 -12 0 -8 -15 11 -41 -19 -22 -83 54 -14 16
-23 37 -21 46 3 12 -1 15 -14 12 -13 -4 -21 2 -28 20 -5 14 -15 28 -21 32 -12
7 -4 25 11 25 6 0 7 -5 4 -11 -8 -11 25 -40 37 -33 16 10 7 42 -12 47 -11 3
-20 11 -20 19 0 10 3 9 10 -2 5 -8 10 -10 10 -4 0 5 -9 20 -21 33 -17 18 -18
25 -9 36 9 11 9 15 1 15 -6 0 -11 10 -11 23 0 13 -4 27 -9 32 -5 6 -12 25 -16
43 -8 37 6 42 39 15 19 -17 19 -16 -2 13 -13 19 -19 39 -15 52 4 18 1 22 -21
22 -14 0 -26 5 -26 10 0 6 -7 10 -15 10 -8 0 -15 9 -15 20 0 11 -5 20 -11 20
-8 0 -9 4 0 13 14 17 4 27 -26 27 -13 0 -23 6 -23 13 0 17 -46 58 -82 74 -18
8 -28 20 -28 33 0 23 -10 26 -29 8 -11 -11 -15 -9 -25 6 -6 11 -23 33 -38 49
-16 17 -28 33 -28 36 0 3 -12 14 -26 24 -21 16 -27 17 -41 5 -12 -9 -15 -10
-9 0 9 14 -8 32 -47 50 -27 11 -27 11 -16 -10 10 -18 9 -20 -6 -15 -9 4 -19 7
-21 7 -2 0 -4 7 -4 15 0 8 -6 15 -12 15 -7 0 -34 20 -59 45 -26 25 -57 49 -70
55 -13 6 -42 21 -64 35 -160 100 -268 131 -493 140 -46 2 -90 9 -97 15 -9 8
-15 8 -20 0 -4 -6 -13 -7 -23 -2 -55 28 -259 62 -402 67 -60 3 -81 -1 -105
-16z m-185 -209 c0 -5 -4 -10 -9 -10 -5 0 -16 -3 -25 -6 -9 -3 -16 -1 -16 4 0
9 16 17 43 21 4 0 7 -3 7 -9z m630 -208 c0 -9 10 -26 22 -39 12 -13 19 -23 15
-23 -14 0 -75 75 -70 87 7 18 33 -2 33 -25z m1034 -17 c-4 -8 -10 -12 -15 -9
-11 6 -2 24 11 24 5 0 7 -7 4 -15z m-464 -26 c0 -6 -4 -7 -10 -4 -5 3 -10 11
-10 16 0 6 5 7 10 4 6 -3 10 -11 10 -16z m-166 -21 c-5 -8 16 -12 49 -10 11 1
17 -5 17 -19 0 -28 19 -61 31 -54 5 4 9 15 9 26 0 23 18 26 26 4 4 -8 15 -15
25 -15 10 0 19 -6 19 -14 0 -15 27 -30 48 -27 6 1 12 -3 12 -8 0 -6 8 -7 17
-4 13 5 15 2 10 -11 -4 -10 -4 -23 0 -29 4 -7 8 -14 9 -17 0 -3 6 -17 11 -31
20 -48 45 -160 39 -175 -4 -11 -2 -15 8 -11 11 5 12 0 3 -23 -8 -20 -14 -25
-19 -17 -4 7 -8 8 -8 3 0 -5 -7 -3 -15 4 -20 17 -20 -1 1 -41 8 -17 13 -33 10
-36 -3 -3 -11 7 -18 23 -7 16 -31 57 -54 91 -24 33 -40 63 -38 66 3 3 1 8 -5
12 -15 9 -14 -9 4 -52 13 -31 13 -34 0 -23 -8 6 -17 21 -21 32 -4 14 -12 18
-26 15 -13 -4 -22 1 -28 18 -9 24 -30 43 -30 27 0 -13 31 -75 47 -94 8 -9 13
-23 10 -30 -4 -9 -6 -8 -6 3 -1 9 -12 19 -26 21 -29 6 -28 7 -13 -29 6 -15 10
-32 10 -36 -1 -4 5 -10 13 -13 8 -4 15 -10 15 -15 0 -4 -6 -6 -13 -3 -8 3 -19
-2 -26 -10 -11 -13 -8 -20 19 -44 24 -23 28 -31 17 -35 -8 -3 -18 -3 -22 1 -4
4 -10 7 -13 7 -31 0 -146 95 -169 139 -9 17 -26 41 -39 53 -13 12 -24 30 -24
40 0 10 -14 36 -30 57 -16 21 -27 43 -24 48 3 5 0 15 -6 23 -7 8 -10 22 -6 30
7 19 40 19 56 0 22 -27 28 -6 9 32 l-20 38 33 5 c29 5 33 9 31 33 -1 15 2 25
7 22 4 -3 10 -1 12 5 6 20 57 -14 61 -40 3 -16 5 -10 6 16 0 22 -4 45 -10 51
-6 6 -8 21 -4 33 5 17 9 19 15 9 5 -7 6 -17 4 -21z m110 -4 c8 -21 8 -24 -3
-24 -5 0 -11 9 -14 20 -6 24 8 27 17 4z m556 6 c0 -5 -4 -10 -10 -10 -5 0 -10
5 -10 10 0 6 5 10 10 10 6 0 10 -4 10 -10z m-773 -32 c-3 -8 -6 -5 -6 6 -1 11
2 17 5 13 3 -3 4 -12 1 -19z m323 -52 c0 -5 -7 -3 -15 4 -8 7 -12 17 -9 22 7
10 24 -9 24 -26z m-900 -97 c0 -6 -4 -7 -10 -4 -5 3 -10 11 -10 16 0 6 5 7 10
4 6 -3 10 -11 10 -16z m-406 -186 c2 -46 8 -89 13 -95 6 -7 13 -37 17 -67 11
-85 55 -169 68 -130 2 7 10 4 18 -7 14 -16 13 -17 -2 -11 -14 5 -18 1 -18 -16
0 -17 2 -19 9 -8 8 12 12 12 25 2 14 -11 16 -11 17 5 1 29 28 -35 29 -68 0
-35 63 -80 114 -81 34 -1 36 -3 36 -35 0 -18 -4 -31 -10 -27 -5 3 -7 11 -4 19
3 9 -5 13 -25 13 -26 0 -30 -4 -33 -34 -3 -26 0 -37 14 -44 10 -6 16 -14 13
-19 -3 -4 0 -10 6 -12 6 -2 9 -13 7 -23 -3 -16 -17 -1 -63 62 -33 45 -67 83
-75 83 -8 0 -26 19 -40 41 -14 23 -36 52 -48 65 -13 12 -21 27 -18 32 3 6 -1
15 -10 22 -10 9 -13 22 -9 42 4 16 2 28 -3 28 -5 0 -13 11 -16 25 -4 14 -10
24 -15 21 -4 -3 -8 7 -8 22 0 51 -16 151 -23 147 -9 -6 -4 143 7 200 l7 40 8
-55 c4 -30 10 -92 12 -137z m1466 137 c0 -16 5 -32 10 -35 18 -11 10 -23 -12
-18 -19 4 -20 3 -8 -6 8 -6 23 -11 33 -11 17 0 21 -9 18 -42 -1 -10 4 -18 13
-18 8 0 18 -9 21 -20 3 -11 13 -20 22 -20 14 0 14 3 -2 20 -10 11 -16 23 -12
26 11 11 47 -8 47 -25 0 -9 5 -22 12 -29 9 -9 9 -12 -1 -12 -9 0 -8 -5 3 -16
9 -8 16 -24 16 -34 0 -10 6 -30 14 -45 12 -23 15 -24 18 -8 3 14 7 12 21 -14
19 -36 19 -50 1 -45 -24 5 -26 -19 -5 -63 12 -25 28 -45 36 -45 8 0 15 -6 15
-14 0 -8 3 -22 7 -32 4 -12 3 -15 -5 -10 -21 12 -13 -15 19 -71 17 -30 29 -57
26 -59 -3 -3 -8 4 -12 15 -3 12 -11 21 -16 21 -13 0 -12 -6 10 -50 11 -22 15
-40 10 -40 -4 0 -6 -8 -2 -17 5 -16 4 -16 -9 -3 -8 8 -25 42 -38 74 -23 57
-78 166 -85 166 -7 0 8 -86 18 -98 5 -7 7 -16 3 -20 -4 -4 -14 2 -22 13 -8 11
-24 31 -36 44 -26 31 -67 140 -110 296 -6 22 -17 47 -24 56 -8 8 -14 31 -14
50 0 52 -10 78 -26 72 -8 -3 -14 0 -14 6 0 6 7 11 16 11 13 0 15 7 12 32 -5
31 9 61 25 51 4 -2 7 -17 7 -33z m-1385 -38 c-12 -28 -16 -74 -6 -67 11 6 31
-57 31 -99 0 -16 10 -44 21 -63 16 -26 19 -37 10 -46 -8 -8 -11 -8 -11 1 0 7
-11 29 -24 50 -43 67 -73 252 -41 252 8 0 16 6 16 13 1 6 3 4 6 -6 3 -10 1
-26 -2 -35z m-178 -24 c-3 -8 -6 -5 -6 6 -1 11 2 17 5 13 3 -3 4 -12 1 -19z
m438 -18 c3 -5 1 -10 -4 -10 -6 0 -11 5 -11 10 0 6 2 10 4 10 3 0 8 -4 11 -10z
m-430 -10 c3 -5 1 -10 -4 -10 -6 0 -11 5 -11 10 0 6 2 10 4 10 3 0 8 -4 11
-10z m1885 -35 c0 -8 4 -23 9 -33 5 -9 17 -46 27 -82 9 -36 21 -69 26 -74 4
-6 8 -22 8 -37 0 -19 6 -30 20 -34 16 -5 19 -12 14 -27 -4 -14 -2 -18 5 -14
11 7 15 -6 5 -17 -18 -17 -87 115 -109 208 -8 35 -24 57 -36 49 -15 -9 -10
-39 11 -62 11 -12 20 -27 19 -34 0 -10 -2 -10 -6 0 -2 6 -10 12 -17 12 -7 0
-18 11 -25 24 -7 13 -24 30 -37 37 -17 8 -24 20 -23 38 2 24 2 24 6 4 6 -31
19 -29 27 3 5 20 12 25 26 21 13 -3 21 1 25 14 8 23 25 25 25 4z m-1930 -50
c0 -8 -4 -15 -10 -15 -5 0 -10 7 -10 15 0 8 5 15 10 15 6 0 10 -7 10 -15z m65
-29 c4 -18 5 -44 3 -57 -4 -22 -5 -22 -20 11 -10 23 -12 41 -6 53 5 9 6 23 2
29 -4 7 -3 8 4 4 6 -4 14 -22 17 -40z m-58 -51 c6 -14 8 -25 4 -25 -12 0 -31
23 -31 37 0 21 14 15 27 -12z m190 3 c-3 -8 -6 -5 -6 6 -1 11 2 17 5 13 3 -3
4 -12 1 -19z m1603 -13 c0 -5 -5 -3 -10 5 -5 8 -10 20 -10 25 0 6 5 3 10 -5 5
-8 10 -19 10 -25z m-230 5 c0 -11 -2 -20 -4 -20 -2 0 -6 9 -9 20 -3 11 -1 20
4 20 5 0 9 -9 9 -20z m294 -6 c3 -8 2 -12 -4 -9 -6 3 -10 10 -10 16 0 14 7 11
14 -7z m-277 -16 c-3 -8 -6 -5 -6 6 -1 11 2 17 5 13 3 -3 4 -12 1 -19z m-1517
-56 c0 -13 7 -30 15 -36 14 -10 13 -13 -3 -27 -18 -15 -19 -14 -20 16 -1 17
-6 44 -12 59 -13 36 -13 41 5 26 8 -7 15 -24 15 -38z m1485 17 c11 -17 -1 -21
-15 -4 -8 9 -8 15 -2 15 6 0 14 -5 17 -11z m-349 -46 c-4 -4 -11 -1 -16 7 -16
25 -11 35 7 17 9 -9 13 -20 9 -24z m659 -47 c17 -12 17 -13 -8 -18 -25 -5 -44
12 -30 26 9 9 17 7 38 -8z m395 -7 c0 -14 -17 -10 -23 5 -4 10 -1 13 9 9 7 -3
14 -9 14 -14z m-2127 -17 c2 7 3 4 1 -7 -2 -10 3 -26 10 -35 7 -8 19 -33 26
-55 16 -49 57 -105 73 -99 8 3 12 -9 12 -36 0 -26 -4 -40 -13 -40 -28 0 -50
21 -56 55 -4 19 -11 35 -15 35 -5 0 -8 12 -8 26 0 14 -10 39 -22 55 -12 16
-26 40 -31 54 -6 15 -14 23 -20 20 -6 -4 -10 5 -10 20 0 25 1 25 24 10 19 -13
25 -13 29 -3z m239 3 c0 -5 -5 -11 -11 -13 -6 -2 -11 4 -11 13 0 9 5 15 11 13
6 -2 11 -8 11 -13z m88 -30 c0 -14 -4 -25 -10 -25 -5 0 -10 11 -10 25 0 14 5
25 10 25 6 0 10 -11 10 -25z m1845 -1 l17 -27 -26 19 c-26 19 -33 34 -17 34 5
0 16 -12 26 -26z m-1888 -16 c-1 -18 -6 -36 -12 -40 -7 -5 -6 -14 3 -28 15
-24 15 -30 2 -30 -6 0 -16 11 -22 25 -9 20 -8 32 8 65 10 22 20 40 21 40 1 0
1 -15 0 -32z m82 -82 c20 -13 12 -35 -10 -29 -33 9 -53 47 -38 74 11 22 11 22
24 -8 7 -17 18 -34 24 -37z m1438 -38 c-3 -8 -6 -5 -6 6 -1 11 2 17 5 13 3 -3
4 -12 1 -19z m-137 -28 c0 -5 -5 -10 -11 -10 -5 0 -7 5 -4 10 3 6 8 10 11 10
2 0 4 -4 4 -10z m-1105 -120 c3 -5 2 -10 -4 -10 -5 0 -13 5 -16 10 -3 6 -2 10
4 10 5 0 13 -4 16 -10z m-390 -10 c3 -5 1 -10 -4 -10 -6 0 -11 5 -11 10 0 6 2
10 4 10 3 0 8 -4 11 -10z m2220 -20 c-3 -5 -11 -10 -16 -10 -6 0 -7 5 -4 10 3
6 11 10 16 10 6 0 7 -4 4 -10z m-2187 -18 c6 -18 -15 -14 -22 4 -4 10 -1 14 6
12 6 -2 14 -10 16 -16z m43 -45 c-1 -12 -15 -9 -19 4 -3 6 1 10 8 8 6 -3 11
-8 11 -12z m349 -177 c0 -5 -2 -10 -4 -10 -3 0 -8 5 -11 10 -3 6 -1 10 4 10 6
0 11 -4 11 -10z m1589 -115 c13 -4 17 -12 14 -25 -3 -11 -10 -20 -15 -20 -5 0
-6 5 -3 10 3 6 0 10 -8 10 -20 0 -38 56 -30 89 6 24 8 23 15 -16 6 -27 16 -44
27 -48z m151 -35 c0 -11 -4 -20 -10 -20 -5 0 -10 9 -10 20 0 11 5 20 10 20 6
0 10 -9 10 -20z m-1003 -226 c-3 -3 -12 -4 -19 -1 -8 3 -5 6 6 6 11 1 17 -2
13 -5z m28 -24 c3 -5 2 -10 -4 -10 -5 0 -13 5 -16 10 -3 6 -2 10 4 10 5 0 13
-4 16 -10z m735 -31 c19 -6 47 -16 63 -22 33 -11 36 -27 5 -27 -27 0 -138 51
-138 64 0 9 10 7 70 -15z m120 -48 c0 -6 -4 -13 -10 -16 -5 -3 -10 1 -10 9 0
9 5 16 10 16 6 0 10 -4 10 -9z m217 -27 c-3 -3 -12 -4 -19 -1 -8 3 -5 6 6 6
11 1 17 -2 13 -5z m431 -19 c11 -14 24 -25 30 -25 5 0 15 -7 22 -15 10 -12 9
-15 -7 -15 -20 0 -63 34 -63 50 0 6 -7 10 -15 10 -8 0 -15 5 -15 10 0 19 29
10 48 -15z m-1335 -132 c-7 -2 -19 -2 -25 0 -7 3 -2 5 12 5 14 0 19 -2 13 -5z
m736 -117 c1 -80 -5 -68 -12 24 -4 46 -3 67 3 55 5 -11 9 -47 9 -79z m-914
-16 c3 -5 1 -10 -4 -10 -6 0 -11 5 -11 10 0 6 2 10 4 10 3 0 8 -4 11 -10z
m795 -51 c0 -9 -10 -24 -22 -35 -12 -10 -18 -14 -15 -8 4 7 8 33 9 59 1 44 2
45 14 23 7 -12 13 -30 14 -39z m404 -48 c10 -10 14 -21 9 -24 -4 -3 -16 6 -26
19 -21 28 -8 32 17 5z m309 -14 c3 -8 1 -20 -4 -28 -6 -10 -9 -7 -9 14 0 29 5
35 13 14z m-288 -37 c3 -5 1 -10 -4 -10 -6 0 -11 5 -11 10 0 6 2 10 4 10 3 0
8 -4 11 -10z m-404 -90 l-9 -55 -1 61 c0 33 2 64 7 68 12 13 13 -15 3 -74z
m745 58 c3 -13 14 -34 24 -48 12 -17 15 -32 9 -45 -7 -19 -10 -18 -13 5 0 6
-6 14 -12 18 -6 4 -13 15 -17 25 -4 10 -11 15 -17 12 -5 -3 -10 -2 -10 4 0 5
4 12 10 16 5 3 7 12 3 20 -3 8 0 15 5 15 6 0 14 -10 18 -22z m-197 -88 c11
-24 11 -24 -3 -6 -9 11 -16 24 -16 30 0 12 5 7 19 -24z m-766 -20 c3 -11 1
-20 -4 -20 -5 0 -9 9 -9 20 0 11 2 20 4 20 2 0 6 -9 9 -20z m847 -19 c0 -18
-17 -20 -36 -6 -18 14 -18 14 9 15 15 0 27 -4 27 -9z m-413 -143 c-2 -13 -4
-5 -4 17 -1 22 1 32 4 23 2 -10 2 -28 0 -40z m-1712 -78 c-3 -5 -11 -10 -16
-10 -6 0 -7 5 -4 10 3 6 11 10 16 10 6 0 7 -4 4 -10z m75 -21 c0 -5 -7 -9 -15
-9 -9 0 -12 -6 -8 -16 5 -14 2 -13 -16 2 -19 17 -20 20 -5 31 17 12 44 7 44
-8z m1900 -4 c0 -8 -6 -12 -14 -9 -8 3 -12 12 -9 20 6 17 23 9 23 -11z m-2021
2 c-8 -6 -104 -56 -165 -87 -65 -32 -112 -42 -54 -12 105 56 156 84 165 92 11
9 48 18 54 13 2 -2 2 -4 0 -6z m1955 -31 c-3 -9 -12 -16 -20 -16 -11 0 -10 4
4 18 20 22 25 21 16 -2z m46 -5 c0 -6 -4 -13 -10 -16 -5 -3 -10 1 -10 9 0 9 5
16 10 16 6 0 10 -4 10 -9z m-1910 -31 c13 -8 13 -10 -2 -10 -9 0 -20 5 -23 10
-8 13 5 13 25 0z m860 -10 c0 -5 -4 -10 -10 -10 -5 0 -10 5 -10 10 0 6 5 10
10 10 6 0 10 -4 10 -10z m780 -89 c0 -6 -4 -13 -10 -16 -5 -3 -10 1 -10 9 0 9
5 16 10 16 6 0 10 -4 10 -9z m-523 -253 c-3 -8 -6 -5 -6 6 -1 11 2 17 5 13 3
-3 4 -12 1 -19z m-187 -66 c0 -11 -41 -34 -48 -28 -3 4 3 13 14 21 21 16 34
19 34 7z m-50 -58 c0 -8 -5 -12 -10 -9 -6 4 -8 11 -5 16 9 14 15 11 15 -7z"/>
<path d="M5210 6910 c0 -11 2 -20 4 -20 2 0 6 9 9 20 3 11 1 20 -4 20 -5 0 -9
-9 -9 -20z"/>
<path d="M5172 6810 c0 -14 2 -19 5 -12 2 6 2 18 0 25 -3 6 -5 1 -5 -13z"/>
<path d="M5166 6707 c3 -10 9 -15 12 -12 3 3 0 11 -7 18 -10 9 -11 8 -5 -6z"/>
<path d="M5240 6595 c0 -8 4 -15 10 -15 5 0 7 7 4 15 -4 8 -8 15 -10 15 -2 0
-4 -7 -4 -15z"/>
<path d="M5210 6502 c0 -5 9 -17 20 -27 22 -20 26 -9 6 18 -14 18 -26 22 -26
9z"/>
<path d="M4101 6404 c0 -11 3 -14 6 -6 3 7 2 16 -1 19 -3 4 -6 -2 -5 -13z"/>
<path d="M5620 6460 c0 -5 5 -10 10 -10 6 0 10 5 10 10 0 6 -4 10 -10 10 -5 0
-10 -4 -10 -10z"/>
<path d="M3750 7290 c-8 -5 -10 -10 -5 -10 6 0 17 5 25 10 8 5 11 10 5 10 -5
0 -17 -5 -25 -10z"/>
<path d="M3640 7190 c0 -5 5 -10 10 -10 6 0 10 5 10 10 0 6 -4 10 -10 10 -5 0
-10 -4 -10 -10z"/>
<path d="M5860 7010 c0 -5 5 -10 10 -10 6 0 10 5 10 10 0 6 -4 10 -10 10 -5 0
-10 -4 -10 -10z"/>
<path d="M5892 6988 c6 -18 28 -21 28 -4 0 9 -7 16 -16 16 -9 0 -14 -5 -12
-12z"/>
<path d="M3465 6948 c-15 -18 -37 -35 -49 -39 -15 -4 -20 -12 -18 -28 2 -15 0
-21 -7 -17 -6 4 -22 -5 -34 -20 -23 -27 -24 -27 -29 -6 -4 12 -2 20 2 17 5 -3
12 0 16 6 3 6 1 15 -7 20 -11 6 -10 12 5 28 10 11 16 26 14 33 -5 15 -46 -47
-68 -102 -8 -19 -26 -55 -40 -80 -42 -74 -117 -249 -145 -340 -14 -47 -33
-105 -42 -130 -9 -25 -16 -60 -16 -77 0 -18 -3 -33 -7 -33 -4 0 -13 -19 -19
-42 -7 -24 -22 -62 -32 -85 -10 -23 -19 -52 -19 -65 0 -33 -139 -293 -201
-375 -9 -12 -26 -47 -38 -76 l-22 -54 25 -54 c31 -63 31 -59 6 -59 -14 0 -22
-11 -30 -40 -6 -22 -8 -45 -5 -50 3 -5 1 -11 -3 -14 -5 -3 -10 -22 -11 -43 -1
-21 -3 -47 -5 -58 -3 -11 -5 -23 -5 -27 -2 -19 -21 -6 -22 15 -1 21 -1 21 -9
-3 -6 -20 -8 -14 -9 28 -1 29 3 52 9 52 6 0 8 11 4 25 -4 17 -1 27 9 31 17 6
11 47 -7 41 -13 -4 -18 -24 -47 -179 -13 -72 -26 -116 -33 -115 -6 1 -10 -4
-8 -11 2 -13 -10 -12 -57 6 -9 3 -12 1 -7 -6 3 -6 3 -36 0 -68 -6 -49 -9 -55
-20 -39 -7 9 -18 14 -23 10 -6 -3 -14 1 -17 9 -5 12 -13 8 -41 -19 -19 -18
-41 -31 -48 -29 -7 3 -18 -4 -25 -15 -13 -25 -27 -26 -52 -4 -17 15 -18 15
-18 -7 0 -18 -4 -22 -25 -18 -17 4 -25 1 -25 -8 0 -18 -10 -18 -49 2 -32 16
-58 11 -31 -6 16 -10 10 -13 -35 -23 -17 -4 -16 -5 4 -6 20 -1 21 -3 11 -16
-7 -8 -18 -15 -26 -15 -9 0 -11 -10 -7 -35 4 -27 2 -35 -10 -35 -8 0 -17 6
-20 13 -3 9 -9 9 -26 -1 -19 -11 -22 -11 -19 2 2 8 -1 15 -7 15 -5 0 -9 -6 -7
-14 4 -19 -36 -29 -53 -15 -13 10 -15 7 -15 -18 0 -17 5 -34 10 -37 6 -3 9
-21 9 -38 -1 -18 -3 -25 -6 -16 -4 16 -89 56 -99 47 -5 -6 20 -64 38 -90 7 -9
9 -21 5 -25 -5 -4 -12 -1 -16 6 -16 25 -33 1 -26 -37 l6 -35 -35 6 c-20 3 -36
2 -36 -4 0 -5 6 -9 14 -9 20 0 29 -16 21 -41 -5 -14 -12 -18 -26 -14 -24 8
-37 -20 -20 -46 13 -22 11 -22 -24 -9 -20 8 -25 7 -23 -4 2 -8 -7 -22 -18 -33
-16 -14 -19 -23 -13 -40 5 -13 12 -23 18 -23 5 0 11 -9 14 -20 3 -11 20 -27
39 -36 64 -30 89 -46 95 -60 4 -10 16 -12 44 -9 21 3 57 7 80 10 23 3 38 2 35
-4 -3 -5 1 -12 10 -15 8 -3 12 -10 9 -16 -3 -5 1 -10 9 -10 9 0 16 -7 16 -15
0 -8 3 -15 8 -15 4 0 21 -12 37 -26 17 -14 66 -45 110 -69 77 -42 85 -44 190
-50 85 -6 123 -4 169 8 32 9 62 19 66 24 4 4 3 22 -2 40 -8 30 -10 32 -35 22
-14 -5 -47 -7 -72 -3 -49 7 -131 41 -131 54 0 4 -12 8 -26 8 -15 0 -30 6 -35
13 -7 12 -9 12 -9 -1 0 -8 -24 11 -54 42 -29 32 -56 54 -60 51 -3 -4 -6 0 -6
8 0 9 -9 25 -20 37 -11 12 -20 29 -20 38 0 10 -3 14 -6 11 -4 -4 -15 3 -25 14
-11 12 -20 16 -24 9 -4 -7 -12 -7 -25 0 -10 5 -34 10 -53 10 -22 0 -40 7 -53
22 -19 21 -19 21 1 13 11 -4 43 -10 70 -12 28 -2 59 -5 71 -6 11 -2 53 -37 93
-78 45 -46 79 -73 90 -71 10 1 24 -4 31 -13 10 -12 10 -15 -1 -15 -8 -1 3 -10
24 -21 32 -17 41 -18 55 -7 13 11 15 11 10 -3 -5 -13 2 -16 35 -17 23 -1 58
-6 77 -12 19 -5 48 -10 65 -10 23 0 27 -3 15 -10 -9 -6 -10 -10 -3 -10 6 0 19
7 28 16 13 13 21 14 38 6 81 -39 256 -92 302 -92 46 0 44 13 -7 42 -47 26 -58
45 -31 54 10 3 26 10 36 15 10 5 50 10 90 11 59 1 81 -3 122 -24 28 -15 60
-35 71 -46 21 -20 88 -40 109 -33 6 2 35 8 65 13 30 5 59 13 65 18 12 10 181
32 234 31 35 -1 91 18 91 31 0 5 11 8 25 8 16 0 25 6 25 15 0 8 5 15 10 15 6
0 10 5 10 10 0 6 -11 10 -24 10 -15 0 -26 7 -29 20 -3 11 -17 24 -31 30 -22 8
-25 14 -20 37 9 41 32 73 59 83 12 5 26 13 29 18 3 5 36 13 73 16 91 9 182 25
216 38 53 20 11 32 -127 37 -32 1 -46 8 -77 40 -20 22 -54 47 -75 56 -22 9
-34 19 -28 24 19 18 116 42 161 41 85 -3 93 -1 93 19 0 11 6 22 13 24 6 3 -2
6 -20 6 -17 1 -34 5 -37 10 -3 5 -25 2 -48 -6 -37 -12 -43 -12 -57 1 -14 15
-13 16 7 16 20 0 23 4 20 38 l-3 37 39 -3 c21 -1 44 2 50 7 22 18 88 30 107
21 10 -6 20 -6 23 -1 9 14 66 22 85 11 12 -6 29 -5 49 2 26 10 34 9 50 -5 10
-9 28 -17 39 -17 32 0 34 -11 7 -35 -26 -22 -25 -51 1 -41 7 2 22 -2 34 -10
11 -8 21 -12 21 -8 0 3 8 0 17 -7 15 -12 16 -12 10 5 -6 15 -3 17 15 13 16 -4
37 3 67 23 24 17 51 30 60 30 9 0 25 -18 35 -40 28 -59 49 -53 64 19 7 32 15
91 18 130 5 69 4 73 -21 92 -14 11 -25 29 -25 39 0 10 -12 29 -27 42 -16 13
-34 35 -42 50 -8 15 -24 31 -35 34 -12 4 -27 15 -34 25 -7 11 -20 19 -28 19
-8 0 -14 7 -14 15 0 8 -4 15 -8 15 -5 0 -46 25 -92 55 -45 31 -84 54 -86 52
-2 -2 5 -21 16 -42 11 -22 20 -51 20 -66 0 -19 6 -30 19 -34 11 -3 34 -20 52
-36 18 -17 45 -37 60 -44 15 -8 38 -29 50 -47 13 -18 29 -37 36 -41 37 -23 61
-139 32 -158 -22 -14 -50 -12 -264 20 -43 6 -88 4 -155 -6 -105 -16 -173 -17
-178 -3 -2 6 -10 10 -18 10 -8 0 -14 7 -14 15 0 11 -12 15 -50 15 -89 0 -53
51 65 93 129 46 236 87 258 99 21 11 19 12 -28 25 -27 7 -68 13 -90 13 -50 0
-120 -38 -120 -65 0 -14 -8 -21 -27 -23 -32 -4 -69 14 -65 30 1 7 -8 17 -20
23 -25 11 -31 25 -11 25 7 0 -1 12 -17 28 -76 69 -85 88 -85 167 0 63 -3 76
-19 84 -14 8 -27 6 -48 -4 -30 -15 -83 -86 -83 -111 0 -8 -4 -14 -8 -14 -13 0
-92 -129 -92 -151 0 -24 -57 -85 -86 -94 -19 -5 -26 3 -54 60 -18 37 -41 72
-52 78 -22 14 -48 68 -48 102 0 13 -5 25 -12 27 -27 9 -37 241 -12 276 18 26
30 27 75 5 45 -22 126 -28 188 -13 60 14 76 30 28 28 -41 -1 -187 32 -187 43
0 4 8 13 18 18 9 6 11 11 5 11 -7 0 -13 3 -13 8 0 8 262 5 317 -4 34 -5 73
-54 73 -92 0 -11 6 -22 13 -25 20 -8 81 26 86 48 2 11 7 23 12 26 5 3 5 35 0
76 -5 39 -5 104 -1 145 8 69 7 76 -21 127 -16 30 -29 63 -29 73 0 9 -9 32 -20
50 -11 18 -20 43 -20 56 0 14 -4 21 -11 16 -6 -3 -8 -17 -5 -30 4 -14 2 -33
-4 -44 -7 -12 -7 -21 0 -25 5 -3 10 -16 10 -27 0 -12 7 -30 17 -40 15 -17 15
-18 0 -18 -10 0 -17 7 -17 16 0 8 -4 13 -9 10 -4 -3 -27 3 -49 14 -23 11 -45
20 -51 20 -12 0 -71 74 -71 89 0 6 -10 11 -23 11 -26 0 -57 32 -57 60 0 10 -4
21 -8 24 -5 3 -3 45 4 93 8 48 14 92 14 97 0 6 5 5 12 -2 7 -7 16 -12 20 -12
13 0 9 17 -8 35 -12 12 -15 26 -10 58 3 23 8 59 10 79 2 20 11 51 20 69 18 36
21 89 6 89 -5 0 -10 -9 -10 -20 0 -19 -11 -26 -22 -14 -5 5 18 78 47 147 4 10
3 17 -4 17 -7 0 -17 -14 -23 -31 -6 -17 -22 -38 -37 -47 -14 -10 -26 -26 -26
-37 0 -16 -7 -20 -33 -22 -26 -1 -33 3 -38 22 -6 23 29 140 47 160 5 5 9 17 9
28 0 10 4 15 10 12 6 -3 7 1 4 9 -4 11 0 16 15 16 12 0 21 5 21 11 0 5 -4 8
-9 4 -5 -3 -13 -1 -16 5 -5 8 -11 7 -21 -1 -23 -19 -27 -4 -9 28 l17 28 -21
-24 c-16 -18 -20 -31 -15 -56 4 -22 -1 -43 -15 -69 -12 -20 -19 -42 -15 -47 3
-5 1 -8 -5 -7 -5 2 -16 -6 -24 -17 -25 -33 -31 -9 -7 29 17 28 18 35 6 30 -9
-3 -16 -11 -16 -18 0 -6 -9 -17 -20 -24 -17 -10 -19 -16 -9 -33 6 -11 8 -24 4
-27 -3 -3 -8 4 -12 16 -7 29 -15 28 -42 -9 -37 -49 -36 -25 0 28 40 56 63 97
79 136 7 15 16 27 21 27 11 0 43 49 37 56 -3 3 -18 -10 -33 -28z m-39 -286
c-17 -33 -36 -50 -36 -32 0 25 37 76 48 65 2 -2 -4 -17 -12 -33z m-153 3 c-3
-9 -8 -14 -10 -11 -3 3 -2 9 2 15 9 16 15 13 8 -4z m302 -565 c3 -5 -1 -10 -9
-10 -9 0 -16 5 -16 10 0 6 4 10 9 10 6 0 13 -4 16 -10z m1 -261 c75 -14 99
-25 113 -55 13 -29 4 -30 -54 -10 -22 8 -66 18 -97 21 -32 4 -58 11 -58 16 0
5 -7 9 -15 9 -21 0 -19 18 3 23 30 8 47 7 108 -4z m-714 -161 c-7 -7 -12 -8
-12 -2 0 14 12 26 19 19 2 -3 -1 -11 -7 -17z m-78 -205 c-9 -36 -10 -37 -31
-29 -11 4 -13 10 -7 14 6 4 13 15 17 25 11 28 28 20 21 -10z m161 17 c3 -5 1
-10 -4 -10 -6 0 -11 5 -11 10 0 6 2 10 4 10 3 0 8 -4 11 -10z m-6 -78 c11 -40
4 -142 -10 -142 -5 0 -9 6 -9 13 -8 178 -3 210 19 129z m-103 -92 l-15 -85 5
70 c3 39 5 81 5 94 -1 12 2 28 7 35 14 21 13 -28 -2 -114z m106 -90 c-3 -29
-10 -36 -22 -24 -12 12 -1 56 14 51 6 -2 10 -15 8 -27z m857 -2 c12 -33 -21
-94 -53 -100 -45 -9 -48 55 -6 100 27 28 48 28 59 0z m-1077 -123 c-2 -14 -6
-25 -8 -25 -2 0 -4 11 -4 25 0 14 4 25 9 25 4 0 6 -11 3 -25z m-65 -17 c-3 -7
-5 -2 -5 12 0 14 2 19 5 13 2 -7 2 -19 0 -25z m2103 -218 c0 -5 -4 -10 -10
-10 -5 0 -10 5 -10 10 0 6 5 10 10 10 6 0 10 -4 10 -10z m-2515 -89 c3 -5 1
-12 -5 -16 -5 -3 -10 1 -10 9 0 18 6 21 15 7z m1711 -88 c-10 -10 -19 5 -10
18 6 11 8 11 12 0 2 -7 1 -15 -2 -18z m-50 -38 c-11 -8 -25 -15 -30 -14 -6 0
-5 3 2 6 6 2 10 9 6 14 -3 5 5 9 18 9 22 -1 22 -1 4 -15z m-2176 -363 c0 -14
-11 -21 -26 -15 -8 3 -11 9 -8 14 7 11 34 12 34 1z m741 -1 c-8 -5 -20 -7 -28
-4 -21 8 -15 13 15 13 20 0 23 -3 13 -9z m-61 -11 c11 -7 6 -10 -20 -10 -26 0
-31 3 -20 10 8 5 17 10 20 10 3 0 12 -5 20 -10z m499 -29 l-44 -39 45 5 c25 3
50 10 56 14 6 5 18 3 28 -4 16 -12 11 -16 -48 -35 -37 -12 -73 -22 -81 -22 -8
0 -18 -6 -22 -13 -24 -38 -138 -51 -167 -18 -13 15 -14 20 -4 24 28 10 -3 19
-68 19 l-68 0 25 19 c13 10 35 19 49 19 15 0 31 5 38 12 7 7 45 13 89 14 90 1
95 2 68 14 -15 7 -6 9 31 8 28 -1 59 4 70 10 42 25 44 10 3 -27z m-679 19 c0
-5 -2 -10 -4 -10 -3 0 -8 5 -11 10 -3 6 -1 10 4 10 6 0 11 -4 11 -10z m35 -20
c3 -5 2 -10 -4 -10 -5 0 -13 5 -16 10 -3 6 -2 10 4 10 5 0 13 -4 16 -10z m55
-40 c0 -5 -2 -10 -4 -10 -3 0 -8 5 -11 10 -3 6 -1 10 4 10 6 0 11 -4 11 -10z
m35 -20 c3 -5 2 -10 -4 -10 -5 0 -13 5 -16 10 -3 6 -2 10 4 10 5 0 13 -4 16
-10z m45 -20 c8 -5 11 -10 5 -10 -5 0 -17 5 -25 10 -8 5 -10 10 -5 10 6 0 17
-5 25 -10z"/>
<path d="M2658 4213 c7 -3 16 -2 19 1 4 3 -2 6 -13 5 -11 0 -14 -3 -6 -6z"/>
<path d="M2750 4160 c-13 -9 -13 -10 0 -10 8 0 22 5 30 10 13 9 13 10 0 10 -8
0 -22 -5 -30 -10z"/>
<path d="M3495 6870 c3 -5 8 -10 11 -10 2 0 4 5 4 10 0 6 -5 10 -11 10 -5 0
-7 -4 -4 -10z"/>
<path d="M3545 6780 c-3 -5 -1 -10 4 -10 6 0 11 5 11 10 0 6 -2 10 -4 10 -3 0
-8 -4 -11 -10z"/>
<path d="M3517 6732 c-10 -10 -17 -25 -17 -33 0 -9 5 -7 12 6 6 11 16 23 22
27 6 4 8 9 5 13 -3 3 -13 -3 -22 -13z"/>
<path d="M3640 6690 c-13 -8 -12 -10 3 -10 9 0 17 5 17 10 0 12 -1 12 -20 0z"/>
<path d="M3730 6690 c0 -5 5 -10 10 -10 6 0 10 5 10 10 0 6 -4 10 -10 10 -5 0
-10 -4 -10 -10z"/>
<path d="M3727 6618 c-4 -30 -2 -57 3 -62 7 -7 10 12 10 52 0 34 -2 62 -4 62
-2 0 -6 -23 -9 -52z"/>
<path d="M4980 6580 c0 -5 5 -10 11 -10 5 0 7 5 4 10 -3 6 -8 10 -11 10 -2 0
-4 -4 -4 -10z"/>
<path d="M4977 6538 c6 -7 12 -19 14 -26 3 -10 10 -7 24 9 17 19 18 21 3 16
-10 -3 -20 -2 -23 3 -4 6 -11 10 -17 10 -7 0 -7 -4 -1 -12z"/>
<path d="M3721 6530 c-2 -27 11 -60 21 -54 5 4 5 10 0 17 -6 7 -12 21 -15 32
-3 11 -5 13 -6 5z"/>
<path d="M3883 6448 c-11 -18 -12 -131 -1 -144 5 -7 2 -16 -7 -24 -8 -7 -14
-22 -14 -34 1 -17 2 -18 6 -3 2 9 8 15 13 12 17 -11 32 38 31 99 -1 33 -2 69
-2 78 0 23 -15 32 -26 16z"/>
<path d="M4522 6389 c2 -6 8 -10 13 -10 5 0 11 4 13 10 2 6 -4 11 -13 11 -9 0
-15 -5 -13 -11z"/>
<path d="M4474 6355 c11 -8 22 -12 25 -9 6 6 -19 24 -34 24 -5 -1 -1 -7 9 -15z"/>
<path d="M4547 6333 c-4 -3 -7 -11 -7 -17 0 -6 5 -5 12 2 6 6 9 14 7 17 -3 3
-9 2 -12 -2z"/>
<path d="M5040 6325 c0 -8 5 -15 10 -15 6 0 10 7 10 15 0 8 -4 15 -10 15 -5 0
-10 -7 -10 -15z"/>
<path d="M3980 6269 c0 -5 5 -7 10 -4 6 3 10 8 10 11 0 2 -4 4 -10 4 -5 0 -10
-5 -10 -11z"/>
<path d="M3909 6240 c-4 -25 18 -86 28 -76 3 3 1 18 -5 33 -6 15 -13 37 -15
48 -3 17 -4 16 -8 -5z"/>
<path d="M4850 6228 c0 -20 23 -68 33 -68 4 0 15 -16 23 -36 12 -29 18 -34 29
-24 16 14 10 34 -7 24 -6 -4 -8 -2 -5 4 10 16 -2 39 -24 45 -11 3 -19 14 -19
25 0 11 -7 25 -15 32 -12 10 -15 10 -15 -2z"/>
<path d="M3792 6180 c0 -14 2 -19 5 -12 2 6 2 18 0 25 -3 6 -5 1 -5 -13z"/>
<path d="M3870 6192 c0 -18 12 -42 21 -42 14 0 10 26 -6 40 -9 8 -15 8 -15 2z"/>
<path d="M3806 6148 c-9 -36 -7 -41 9 -28 16 13 21 50 6 50 -5 0 -11 -10 -15
-22z"/>
<path d="M4006 6147 c3 -10 9 -15 12 -12 3 3 0 11 -7 18 -10 9 -11 8 -5 -6z"/>
<path d="M4875 6120 c3 -5 8 -10 11 -10 2 0 4 5 4 10 0 6 -5 10 -11 10 -5 0
-7 -4 -4 -10z"/>
<path d="M4940 6089 c-9 -16 -8 -26 5 -45 15 -24 35 -32 35 -15 0 5 -7 14 -15
21 -11 9 -13 16 -5 24 13 13 13 36 0 36 -5 0 -14 -9 -20 -21z"/>
<path d="M6666 6052 c-3 -6 -1 -14 5 -17 14 -9 20 -2 10 14 -6 8 -11 9 -15 3z"/>
<path d="M6661 5990 c-18 -17 -29 -34 -26 -40 10 -16 25 -12 25 8 1 16 2 16
14 -1 15 -20 20 -16 30 25 9 39 -6 41 -43 8z"/>
<path d="M4913 5992 c10 -10 17 -23 17 -28 0 -10 79 -59 97 -59 6 0 15 -3 19
-7 9 -10 24 0 24 17 0 8 -7 11 -17 9 -11 -3 -31 8 -53 30 -19 20 -43 36 -52
36 -10 0 -18 5 -18 10 0 6 -7 10 -17 10 -15 0 -15 -1 0 -18z"/>
<path d="M3978 5993 c7 -3 16 -2 19 1 4 3 -2 6 -13 5 -11 0 -14 -3 -6 -6z"/>
<path d="M6810 5990 c0 -5 5 -10 11 -10 5 0 7 5 4 10 -3 6 -8 10 -11 10 -2 0
-4 -4 -4 -10z"/>
<path d="M4835 5960 c3 -5 8 -10 11 -10 2 0 4 5 4 10 0 6 -5 10 -11 10 -5 0
-7 -4 -4 -10z"/>
<path d="M6740 5961 c-14 -4 -25 -13 -25 -21 0 -23 19 -21 50 5 30 25 23 29
-25 16z"/>
<path d="M3985 5940 c-7 -12 40 -80 56 -80 19 0 9 59 -13 74 -26 19 -35 20
-43 6z"/>
<path d="M5085 5880 c4 -14 17 -33 29 -42 37 -31 41 -19 5 19 -18 21 -36 40
-38 43 -2 3 0 -6 4 -20z"/>
<path d="M6918 5893 c-10 -2 -18 -8 -18 -12 0 -16 13 -19 42 -9 22 8 26 13 16
19 -7 5 -15 8 -18 8 -3 -1 -13 -3 -22 -6z"/>
<path d="M6281 5844 c0 -11 3 -14 6 -6 3 7 2 16 -1 19 -3 4 -6 -2 -5 -13z"/>
<path d="M6725 5850 c-15 -6 -8 -9 28 -9 26 -1 47 4 47 9 0 12 -47 12 -75 0z"/>
<path d="M6457 5783 c-4 -3 -2 -12 4 -19 13 -15 4 -34 -16 -34 -9 0 -12 -6 -9
-15 8 -21 26 -19 48 6 15 18 16 25 5 45 -13 25 -21 29 -32 17z"/>
<path d="M6350 5766 c0 -9 5 -16 10 -16 6 0 10 4 10 9 0 6 -4 13 -10 16 -5 3
-10 -1 -10 -9z"/>
<path d="M6840 5655 c0 -19 19 -19 44 0 19 14 18 15 -12 15 -22 0 -32 -5 -32
-15z"/>
<path d="M6931 5633 c-8 -14 -12 -15 -19 -5 -6 9 -18 11 -35 7 -21 -6 -24 -10
-14 -19 13 -14 75 -26 95 -19 16 6 15 28 -2 42 -11 10 -17 8 -25 -6z"/>
<path d="M6710 5550 c0 -5 5 -10 10 -10 6 0 10 5 10 10 0 6 -4 10 -10 10 -5 0
-10 -4 -10 -10z"/>
<path d="M6852 5494 c1 -9 13 -20 26 -25 30 -11 28 5 -4 26 -24 16 -26 16 -22
-1z"/>
<path d="M6750 5492 c-23 -8 -42 -31 -35 -42 12 -20 75 -8 75 15 0 18 -22 33
-40 27z"/>
<path d="M6807 5484 c3 -7 9 -14 14 -14 14 0 10 17 -5 23 -10 4 -13 1 -9 -9z"/>
<path d="M6860 5440 c0 -5 4 -10 9 -10 6 0 13 5 16 10 3 6 -1 10 -9 10 -9 0
-16 -4 -16 -10z"/>
<path d="M6860 5395 c0 -8 5 -15 10 -15 6 0 10 7 10 15 0 8 -4 15 -10 15 -5 0
-10 -7 -10 -15z"/>
<path d="M2671 5354 c0 -11 3 -14 6 -6 3 7 2 16 -1 19 -3 4 -6 -2 -5 -13z"/>
<path d="M6802 5348 c5 -15 28 -18 29 -3 0 6 -7 12 -17 13 -10 3 -15 -1 -12
-10z"/>
<path d="M6857 5354 c-9 -10 4 -34 19 -34 8 0 14 4 14 9 0 12 -26 32 -33 25z"/>
<path d="M6901 5314 c0 -11 3 -14 6 -6 3 7 2 16 -1 19 -3 4 -6 -2 -5 -13z"/>
<path d="M7082 5191 c2 -7 7 -12 11 -12 12 1 9 15 -3 20 -7 2 -11 -2 -8 -8z"/>
<path d="M7140 5110 c0 -5 5 -10 11 -10 5 0 7 5 4 10 -3 6 -8 10 -11 10 -2 0
-4 -4 -4 -10z"/>
<path d="M7210 5101 c0 -6 4 -12 10 -16 5 -3 7 -12 4 -20 -7 -17 33 -58 49
-51 9 3 9 5 0 5 -6 1 -9 10 -6 21 3 12 -3 29 -18 45 -25 26 -39 32 -39 16z"/>
<path d="M7380 5040 c0 -11 5 -20 10 -20 6 0 10 9 10 20 0 11 -4 20 -10 20 -5
0 -10 -9 -10 -20z"/>
<path d="M3985 5000 c3 -5 11 -10 16 -10 6 0 7 5 4 10 -3 6 -11 10 -16 10 -6
0 -7 -4 -4 -10z"/>
<path d="M7080 4969 c0 -5 5 -7 10 -4 6 3 10 8 10 11 0 2 -4 4 -10 4 -5 0 -10
-5 -10 -11z"/>
<path d="M6970 4920 c0 -5 7 -10 16 -10 8 0 12 5 9 10 -3 6 -10 10 -16 10 -5
0 -9 -4 -9 -10z"/>
<path d="M5580 4875 c-7 -9 -11 -18 -8 -21 7 -7 58 17 58 28 0 14 -37 9 -50
-7z"/>
<path d="M6980 4880 c0 -5 5 -10 11 -10 5 0 7 5 4 10 -3 6 -8 10 -11 10 -2 0
-4 -4 -4 -10z"/>
<path d="M7010 4850 c0 -5 7 -10 16 -10 8 0 12 5 9 10 -3 6 -10 10 -16 10 -5
0 -9 -4 -9 -10z"/>
<path d="M6820 4833 c0 -6 9 -20 20 -33 11 -13 20 -20 20 -16 0 4 -9 19 -20
33 -11 14 -20 21 -20 16z"/>
<path d="M7223 4793 c5 -42 25 -73 47 -73 8 0 9 7 5 18 -4 9 -10 27 -12 39 -3
12 -14 30 -26 40 -20 18 -20 18 -14 -24z"/>
<path d="M6801 4794 c0 -11 3 -14 6 -6 3 7 2 16 -1 19 -3 4 -6 -2 -5 -13z"/>
<path d="M7156 4785 c4 -8 10 -15 15 -15 4 0 6 7 3 15 -4 8 -10 15 -15 15 -4
0 -6 -7 -3 -15z"/>
<path d="M7120 4778 c0 -9 5 -20 10 -23 13 -8 13 5 0 25 -8 13 -10 13 -10 -2z"/>
<path d="M7315 4780 c3 -5 8 -10 11 -10 2 0 4 5 4 10 0 6 -5 10 -11 10 -5 0
-7 -4 -4 -10z"/>
<path d="M7200 4740 c0 -5 5 -10 10 -10 6 0 10 5 10 10 0 6 -4 10 -10 10 -5 0
-10 -4 -10 -10z"/>
<path d="M1741 4683 c14 -22 66 -62 54 -42 -13 23 -48 59 -57 59 -4 0 -3 -8 3
-17z"/>
<path d="M1715 4661 c-3 -10 -3 -26 1 -35 3 -9 1 -16 -5 -16 -6 0 -11 -7 -11
-15 0 -8 5 -15 11 -15 6 0 8 -9 4 -21 -5 -15 -4 -19 4 -15 6 4 11 14 11 22 0
13 3 13 22 0 36 -26 40 -19 12 23 -14 22 -23 44 -20 50 7 11 -3 41 -14 41 -5
0 -11 -8 -15 -19z"/>
<path d="M4191 4662 c-6 -11 -20 -23 -30 -27 -13 -4 -17 -12 -14 -26 4 -12 11
-18 20 -15 8 3 19 6 24 6 5 0 9 7 9 16 0 11 6 15 20 11 25 -6 25 1 1 32 l-19
24 -11 -21z"/>
<path d="M4300 4662 c0 -12 8 -18 25 -20 29 -2 32 6 8 24 -24 18 -33 17 -33
-4z"/>
<path d="M1635 4620 c-3 -5 -1 -10 4 -10 6 0 11 5 11 10 0 6 -2 10 -4 10 -3 0
-8 -4 -11 -10z"/>
<path d="M1616 4593 c-3 -3 2 -12 12 -19 19 -15 32 -18 32 -6 0 11 -37 32 -44
25z"/>
<path d="M1670 4371 c0 -5 5 -13 10 -16 6 -3 10 -2 10 4 0 5 -4 13 -10 16 -5
3 -10 2 -10 -4z"/>
<path d="M1578 4363 c7 -3 16 -2 19 1 4 3 -2 6 -13 5 -11 0 -14 -3 -6 -6z"/>
<path d="M1584 4322 c20 -23 9 -31 -12 -10 -10 10 -15 10 -22 -2 -8 -12 -2
-16 27 -18 50 -5 59 10 20 33 l-32 18 19 -21z"/>
<path d="M6778 4293 c-24 -6 -23 -29 0 -35 11 -3 23 2 30 13 19 30 14 34 -30
22z"/>
<path d="M6722 4268 c6 -18 28 -21 28 -4 0 9 -7 16 -16 16 -9 0 -14 -5 -12
-12z"/>
<path d="M1544 4245 c21 -16 32 -13 21 4 -3 6 -14 11 -23 11 -15 -1 -15 -2 2
-15z"/>
<path d="M1660 4217 c14 -8 27 -12 30 -10 7 6 -23 23 -40 23 -8 0 -4 -6 10
-13z"/>
<path d="M4860 4220 c-17 -11 -17 -11 43 -40 26 -13 60 -40 74 -59 37 -49 48
-57 128 -97 39 -19 82 -42 96 -52 52 -34 137 -82 143 -82 7 0 12 -3 69 -51 21
-17 40 -29 43 -26 7 6 -18 47 -28 47 -5 0 -8 6 -8 14 0 12 -27 27 -55 30 -17
2 -25 20 -12 29 8 6 5 7 -6 3 -13 -4 -20 0 -24 14 -3 11 -12 20 -19 20 -12 0
-19 14 -11 23 1 2 -11 20 -28 39 -16 19 -38 45 -47 57 -10 11 -29 21 -42 21
-28 0 -92 25 -101 40 -14 22 -83 58 -133 69 -63 13 -63 13 -82 1z"/>
<path d="M1525 4190 c3 -5 8 -10 11 -10 2 0 4 5 4 10 0 6 -5 10 -11 10 -5 0
-7 -4 -4 -10z"/>
<path d="M1640 4170 c0 -5 5 -10 10 -10 6 0 10 5 10 10 0 6 -4 10 -10 10 -5 0
-10 -4 -10 -10z"/>
<path d="M2230 4170 c0 -5 5 -10 10 -10 6 0 10 5 10 10 0 6 -4 10 -10 10 -5 0
-10 -4 -10 -10z"/>
<path d="M1700 4151 c0 -11 31 -24 39 -16 3 3 -1 10 -9 15 -19 12 -30 12 -30
1z"/>
<path d="M1750 4139 c0 -12 8 -23 20 -26 11 -3 20 -9 20 -14 0 -16 -19 -20
-39 -7 -15 9 -25 9 -46 0 -16 -8 -32 -9 -43 -3 -9 5 -36 12 -60 16 -23 4 -40
10 -37 15 3 4 -3 11 -12 14 -23 9 -35 -15 -15 -31 9 -7 24 -13 33 -13 8 0 38
-11 65 -25 27 -14 55 -25 62 -25 6 0 12 -4 12 -9 0 -6 -30 -7 -72 -4 -53 4
-70 2 -63 -5 6 -6 38 -12 72 -14 52 -2 66 1 86 20 13 12 29 22 35 22 7 0 12 5
12 10 0 6 7 10 15 10 8 0 15 5 15 11 0 5 4 8 9 4 5 -3 13 0 16 6 8 13 -23 38
-47 39 -10 0 -18 7 -18 15 0 8 -4 15 -10 15 -5 0 -10 -9 -10 -21z m-2 -77 c4
-14 -34 -16 -42 -3 -6 10 13 21 28 17 6 -1 12 -8 14 -14z"/>
<path d="M1485 4060 c-3 -5 1 -10 10 -10 9 0 13 5 10 10 -3 6 -8 10 -10 10 -2
0 -7 -4 -10 -10z"/>
<path d="M4990 4050 c0 -12 28 -25 36 -17 3 3 -4 10 -15 17 -15 7 -21 7 -21 0z"/>
<path d="M1489 4026 c7 -9 23 -16 34 -16 26 0 12 15 -23 25 -22 7 -23 6 -11
-9z"/>
<path d="M2656 4012 c-15 -25 -5 -172 14 -197 14 -18 87 -199 99 -245 7 -25
18 -70 25 -100 11 -52 14 -55 41 -55 38 0 47 35 15 58 -12 8 -17 18 -11 21 5
4 12 2 16 -4 3 -5 15 -10 26 -10 10 0 19 -7 19 -15 0 -23 33 -18 74 10 20 14
41 25 46 25 6 0 10 7 10 15 0 8 6 15 13 15 24 1 -27 30 -53 30 -39 0 -43 10
-14 37 19 18 36 23 75 23 54 0 60 9 27 42 l-22 22 -14 -22 c-15 -22 -49 -32
-36 -10 5 8 2 9 -10 5 -10 -4 -27 -2 -39 5 -22 12 -21 12 8 18 17 4 35 2 42
-2 7 -6 16 -4 24 5 11 12 19 12 44 2 16 -7 42 -15 58 -19 25 -6 27 -5 15 13
-12 20 -103 71 -126 71 -6 0 -12 -7 -12 -16 0 -14 -2 -14 -16 -3 -15 12 -14
15 9 24 l27 11 -28 12 c-15 6 -43 20 -62 32 l-35 20 30 0 c22 0 26 3 15 9 -8
6 -18 7 -22 5 -4 -3 -18 2 -30 10 -12 9 -36 16 -53 16 -26 1 -28 2 -12 11 18
10 18 12 -4 35 -12 13 -31 24 -41 24 -10 0 -18 6 -18 14 0 28 -101 79 -114 58z
m252 -221 c10 -6 10 -10 -3 -21 -12 -10 -21 -10 -45 0 -16 7 -27 16 -24 21 7
11 55 11 72 0z m59 -48 c4 -11 -3 -14 -59 -29 -23 -6 -23 -6 2 20 26 26 50 30
57 9z m13 -43 c0 -5 -12 -10 -26 -10 -14 0 -23 4 -19 10 3 6 15 10 26 10 10 0
19 -4 19 -10z"/>
<path d="M1605 3977 c-27 -12 -59 -30 -70 -40 -20 -18 -19 -18 10 -6 17 7 39
19 50 26 11 7 27 13 36 13 9 0 22 7 29 15 16 19 6 18 -55 -8z"/>
<path d="M1688 3902 c12 -8 72 -4 72 4 0 2 -19 4 -42 4 -26 0 -38 -4 -30 -8z"/>
<path d="M5572 3850 c0 -14 2 -19 5 -12 2 6 2 18 0 25 -3 6 -5 1 -5 -13z"/>
<path d="M1510 3851 c0 -5 16 -19 35 -32 27 -19 39 -37 55 -88 12 -39 16 -69
11 -79 -5 -8 -6 -23 -4 -32 3 -10 0 -21 -6 -24 -16 -10 -13 -36 4 -36 8 0 15
-6 15 -14 0 -7 -7 -19 -15 -26 -23 -19 -18 -40 10 -40 25 0 26 -1 19 -52 -4
-29 -8 -55 -10 -57 -8 -10 19 -41 36 -41 13 0 20 -8 22 -27 2 -23 8 -28 26
-25 19 2 22 -2 17 -17 -3 -11 -1 -22 5 -26 5 -3 10 -17 10 -31 0 -14 7 -27 15
-30 8 -4 15 -15 15 -25 0 -12 7 -19 20 -19 11 0 20 -4 20 -9 0 -5 6 -16 13
-23 7 -7 20 -25 30 -40 10 -16 24 -28 32 -28 8 0 18 -6 22 -14 4 -7 18 -18 31
-25 13 -7 25 -25 29 -41 7 -39 17 -31 48 37 29 63 33 67 96 110 43 30 139 132
139 149 0 4 7 14 15 23 9 9 30 34 47 56 22 29 29 34 25 18 -3 -14 2 -32 15
-48 11 -14 15 -25 9 -25 -6 0 -16 9 -23 20 -15 23 -28 26 -28 6 0 -8 -6 -21
-14 -28 -7 -8 -17 -24 -21 -37 -4 -12 -9 -20 -12 -18 -8 9 -40 -27 -35 -40 2
-7 -3 -16 -12 -19 -9 -3 -16 -12 -16 -20 0 -8 -7 -14 -15 -14 -9 0 -12 -6 -9
-15 5 -11 2 -13 -10 -9 -11 4 -16 1 -16 -10 0 -9 -5 -16 -11 -16 -8 0 -7 -6 2
-16 12 -15 11 -16 -11 -9 -22 7 -23 6 -11 -8 11 -14 11 -18 -5 -24 -11 -5 -19
-15 -19 -23 0 -10 -10 -15 -32 -14 -33 2 -35 -1 -62 -83 -6 -20 -6 -33 0 -33
5 0 9 5 9 10 0 6 7 10 15 10 8 0 15 -7 15 -15 0 -8 -7 -15 -15 -15 -8 0 -15
-9 -15 -20 0 -11 7 -20 15 -20 8 0 15 9 15 19 0 22 18 31 63 32 l32 1 -27 12
c-22 9 -25 15 -16 24 16 16 38 15 38 0 1 -8 6 -6 14 5 19 24 136 37 136 14 0
-11 -21 -21 -70 -33 -69 -18 -91 -42 -34 -36 l29 2 -32 -14 c-18 -8 -53 -18
-78 -21 -25 -4 -48 -11 -51 -16 -10 -17 -31 -9 -44 16 -15 28 -30 33 -30 9 0
-9 -9 -28 -19 -43 -11 -15 -23 -39 -26 -54 -4 -15 -11 -30 -16 -33 -5 -3 -9
-12 -9 -20 0 -8 -8 -22 -19 -33 -10 -10 -21 -25 -24 -32 -5 -11 -10 -9 -23 9
-31 42 -88 16 -63 -30 7 -13 17 -27 23 -31 6 -5 -1 -6 -16 -3 -16 4 -28 2 -28
-3 0 -15 -59 -76 -66 -69 -3 4 -27 -2 -52 -13 l-47 -20 -42 21 c-55 27 -105
35 -132 20 -12 -6 -45 -13 -74 -15 -86 -6 -67 -26 88 -97 28 -12 53 -24 56
-26 3 -1 29 15 57 37 31 25 57 38 67 35 8 -4 21 -2 28 3 25 21 54 21 66 1 16
-26 3 -39 -14 -14 -8 10 -18 15 -24 11 -18 -10 -12 -31 12 -44 24 -12 23 -12
-64 6 -36 7 -65 -11 -72 -43 l-5 -26 68 6 c49 5 70 4 76 -5 5 -9 2 -10 -11 -5
-10 4 -25 1 -34 -7 -27 -24 -83 -29 -109 -11 -13 9 -21 22 -18 30 7 18 -40 19
-48 2 -5 -10 -7 -10 -12 0 -11 23 -24 12 -18 -14 6 -23 4 -25 -15 -19 -18 5
-21 2 -21 -19 0 -15 -6 -26 -13 -26 -8 0 -24 -11 -37 -25 -18 -19 -27 -22 -41
-14 -14 7 -19 6 -19 -3 0 -8 -15 -14 -40 -14 -22 -1 -56 -12 -76 -25 l-36 -22
23 -19 c13 -10 36 -21 51 -24 37 -8 45 -20 53 -81 5 -38 3 -53 -5 -53 -8 0 -9
-17 -5 -56 5 -49 3 -58 -17 -80 -30 -31 -47 -30 -83 7 -24 25 -35 29 -60 25
-41 -9 -55 -25 -31 -40 24 -14 96 -85 96 -94 0 -11 70 -82 81 -82 5 0 9 -6 9
-14 0 -20 40 -32 51 -15 14 23 55 -9 74 -57 11 -28 43 -70 92 -119 73 -73 89
-99 43 -75 -12 6 -29 9 -37 5 -9 -3 -20 0 -24 6 -5 9 -15 7 -39 -5 -18 -9 -39
-16 -46 -16 -7 0 -16 -5 -19 -10 -11 -18 16 -40 49 -40 17 0 42 -7 56 -15 60
-34 96 -45 144 -45 29 0 73 -9 102 -22 l52 -21 -34 -24 c-19 -12 -39 -23 -44
-23 -5 0 -13 -8 -19 -17 -16 -29 -88 -24 -131 8 -19 15 -66 35 -104 45 -82 21
-125 58 -152 131 -9 26 -27 55 -38 65 -16 13 -20 28 -20 72 0 37 -4 56 -12 56
-7 0 -15 -6 -17 -12 -3 -7 -6 3 -6 23 -1 20 -8 42 -16 49 -8 7 -15 19 -15 26
0 8 -12 24 -26 37 -14 12 -35 42 -46 67 -11 25 -27 60 -35 77 -8 18 -13 39
-10 47 3 8 0 20 -8 26 -26 21 -29 109 -6 175 19 58 21 60 53 59 18 -1 50 -5
71 -9 22 -5 37 -4 37 2 0 15 -75 36 -104 29 -15 -4 -36 -1 -47 5 -15 8 -24 8
-32 0 -6 -6 -20 -11 -32 -11 -17 0 -17 -2 -5 -10 13 -9 10 -14 -14 -34 -22
-18 -29 -33 -30 -65 -1 -46 -10 -52 -27 -19 l-12 23 -10 -28 c-5 -15 -14 -27
-21 -27 -20 0 -67 -83 -61 -108 5 -21 4 -22 -16 -12 -16 9 -19 17 -14 38 l7
27 -27 -25 -27 -25 7 30 c4 17 13 51 22 78 21 66 14 74 -30 29 -38 -38 -54
-77 -37 -87 11 -7 -10 -45 -23 -45 -5 0 -6 10 -2 23 5 19 5 20 -5 4 -6 -9 -8
-27 -4 -40 5 -17 4 -20 -6 -10 -10 9 -17 7 -31 -12 -11 -13 -19 -28 -19 -33 0
-5 -7 -15 -16 -23 -8 -7 -13 -21 -10 -32 3 -14 0 -17 -11 -13 -11 5 -14 2 -9
-10 3 -8 6 -18 6 -20 0 -2 6 -4 14 -4 8 0 17 -4 20 -8 2 -4 -20 -9 -51 -10
-42 -2 -63 -8 -85 -27 -36 -31 -46 -31 -57 -4 -7 20 -11 17 -47 -31 -21 -29
-70 -83 -108 -119 -38 -36 -93 -89 -123 -118 l-53 -51 14 -84 c8 -46 24 -118
34 -159 11 -41 23 -101 27 -134 4 -34 15 -70 26 -84 10 -13 19 -28 19 -33 0
-5 20 -41 46 -80 25 -39 52 -89 62 -112 9 -22 31 -67 49 -99 18 -33 33 -61 33
-63 0 -7 57 -84 115 -153 114 -137 124 -152 151 -222 15 -39 36 -75 45 -80 11
-5 184 -8 430 -7 l412 3 18 70 c23 93 58 186 80 209 15 16 21 17 33 6 9 -7 16
-21 16 -31 0 -11 11 -29 24 -40 14 -12 32 -40 41 -63 16 -40 79 -134 100 -148
5 -4 205 -8 444 -8 l433 0 -7 38 c-4 20 -11 43 -17 50 -7 8 -7 16 1 26 9 11 7
15 -9 19 -11 3 -20 9 -19 14 1 4 0 15 -4 23 -7 20 -27 98 -34 132 -3 14 -13
35 -22 45 -9 10 -15 26 -13 36 2 10 -3 17 -12 17 -10 0 -13 6 -9 16 4 10 1 15
-8 14 -36 -5 -40 0 -34 43 5 33 2 47 -9 57 -9 7 -16 19 -16 26 0 8 -6 14 -14
14 -11 0 -14 11 -12 40 2 28 -1 40 -10 40 -19 0 -18 6 7 31 15 15 18 24 10 33
-6 7 -7 16 -3 21 4 4 -8 6 -25 3 -28 -4 -33 -2 -33 17 0 11 5 26 12 33 9 9 7
12 -10 12 -16 0 -22 6 -22 23 0 12 -7 30 -14 40 -8 10 -12 27 -9 37 6 22 -7
26 -23 10 -7 -7 -9 -1 -6 19 3 22 -1 30 -16 35 -36 12 -47 34 -28 54 22 25 20
35 -5 22 -28 -16 -35 -5 -22 30 12 31 6 39 -15 18 -17 -17 -34 8 -27 39 3 12
0 23 -8 26 -9 3 -9 8 3 21 12 16 12 19 -3 28 -23 12 -12 28 18 28 26 0 41 15
25 25 -19 12 0 26 20 15 10 -5 25 -10 32 -9 7 0 2 5 -10 12 -20 9 -23 16 -18
46 6 37 25 56 40 41 13 -13 36 -13 36 0 0 6 -6 10 -14 10 -23 0 -27 39 -5 53
10 6 19 22 19 35 0 16 7 26 21 29 12 4 18 11 15 20 -3 7 1 16 10 20 8 3 21 21
29 39 8 19 19 34 26 34 6 0 19 8 28 18 25 29 61 44 88 37 14 -3 31 -1 40 6 12
10 16 10 23 -1 6 -10 12 -11 22 -2 13 10 100 27 198 39 25 3 53 9 63 15 19 10
233 48 272 48 13 0 28 6 32 13 10 15 67 33 142 42 43 6 61 14 85 39 17 17 42
38 55 46 12 8 35 26 49 38 l27 24 -30 -15 c-16 -9 -40 -25 -52 -36 -12 -12
-27 -21 -32 -21 -6 0 -21 -12 -34 -26 -22 -23 -27 -24 -46 -13 -11 8 -21 17
-21 21 0 5 -6 8 -14 8 -8 0 -16 11 -18 25 -4 31 -22 38 -26 10 -2 -17 -9 -20
-38 -17 -19 2 -41 -1 -49 -8 -8 -6 -20 -8 -27 -4 -7 5 -48 9 -91 9 -84 1 -93
6 -92 52 1 24 6 28 33 31 19 2 36 11 42 23 6 10 17 19 25 19 7 0 15 6 17 12 3
9 9 8 22 -5 21 -21 35 -22 42 -3 8 21 31 27 59 16 22 -9 25 -7 25 15 0 16 -6
25 -15 25 -21 0 -19 16 3 24 24 8 54 28 69 46 7 9 12 10 13 4 0 -21 62 -10 71
11 7 19 8 19 8 -2 1 -13 -8 -32 -18 -42 -11 -11 -17 -21 -15 -24 5 -5 -39 -23
-78 -31 -30 -7 -39 -26 -12 -26 8 0 12 -5 8 -11 -4 -8 1 -9 17 -4 56 15 98 41
104 63 4 18 10 21 30 16 16 -4 25 -2 25 6 0 8 13 11 40 8 29 -2 40 0 40 10 0
21 34 59 48 54 6 -2 12 1 12 7 0 6 -4 11 -10 11 -5 0 -10 9 -10 20 0 11 5 20
10 20 6 0 10 -8 10 -18 0 -28 60 -58 88 -43 11 6 32 11 46 11 19 0 26 5 26 20
0 11 6 20 14 20 13 0 56 102 56 134 0 9 5 16 10 16 6 0 10 -5 10 -11 0 -7 9 0
20 14 29 37 81 45 119 18 16 -12 36 -21 44 -21 9 0 19 -5 22 -10 4 -6 10 -8
15 -5 9 5 14 -7 25 -63 6 -29 4 -34 -14 -39 -16 -4 -20 -11 -16 -24 4 -13 1
-19 -9 -19 -9 0 -16 -7 -16 -15 0 -8 -4 -15 -10 -15 -5 0 -10 -11 -10 -25 0
-14 -5 -25 -10 -25 -6 0 -21 -11 -34 -25 -13 -14 -31 -25 -40 -25 -12 0 -17
-7 -16 -22 3 -37 1 -39 -26 -22 -29 20 -55 6 -29 -16 23 -19 18 -33 -10 -26
-26 7 -33 -6 -16 -33 5 -8 7 -21 4 -28 -4 -11 -8 -12 -13 -3 -5 8 -10 2 -14
-14 -5 -19 -13 -26 -31 -26 -13 0 -28 -6 -32 -14 -4 -7 -19 -16 -33 -19 -14
-3 -41 -11 -60 -16 -34 -10 -34 -11 10 -6 l45 5 -28 -18 c-15 -10 -25 -21 -22
-24 6 -6 -54 -32 -67 -29 -5 0 -8 -3 -8 -7 0 -4 -21 -14 -46 -21 -35 -10 -51
-11 -70 -2 -32 14 -34 14 -34 -4 0 -9 12 -18 30 -22 40 -8 33 -28 -11 -29 -19
-1 -40 -2 -46 -3 -19 -2 -16 -21 3 -21 9 0 14 -6 11 -12 -2 -8 -18 -12 -41
-10 -37 3 -45 -5 -25 -25 20 -20 -1 -36 -21 -18 -17 16 -19 14 -31 -19 -13
-36 -39 -53 -60 -40 -8 4 -9 -1 -5 -17 5 -19 3 -18 -10 6 -16 27 -18 28 -24
10 -4 -11 -4 -21 1 -23 4 -2 6 -9 3 -16 -3 -8 5 -16 21 -20 14 -4 23 -11 20
-16 -7 -12 -45 -14 -45 -2 0 9 -78 8 -87 -2 -3 -3 3 -6 13 -6 11 0 29 -7 40
-15 16 -13 17 -16 4 -24 -9 -7 -18 -7 -24 -1 -13 13 -26 13 -26 0 0 -5 6 -10
14 -10 8 0 16 -6 19 -12 3 -10 9 -10 26 0 18 10 26 10 37 1 22 -18 17 -29 -16
-29 -16 0 -30 -4 -30 -10 0 -5 7 -10 15 -10 11 0 15 -12 15 -49 0 -42 3 -49
22 -54 14 -4 26 -1 31 8 5 10 16 13 31 9 27 -7 56 26 56 63 0 13 5 23 10 23 6
0 10 -4 10 -10 0 -13 43 -13 56 -1 5 5 32 11 59 13 28 1 54 8 58 13 5 6 5 0 2
-12 -5 -17 -2 -23 9 -23 8 0 17 -9 21 -19 3 -11 12 -18 19 -15 7 3 16 -2 19
-10 4 -10 19 -16 42 -16 19 0 35 -5 35 -11 0 -18 25 -36 61 -44 19 -3 42 -9
52 -11 27 -8 21 21 -10 48 -41 35 -67 76 -92 143 -20 53 -22 72 -17 165 4 74
2 112 -7 130 -11 23 -10 26 11 38 13 6 34 12 46 12 20 1 20 1 3 15 -18 13 -18
15 -1 44 14 23 26 31 47 31 45 0 87 -27 87 -56 0 -18 17 -41 59 -80 33 -30 73
-78 90 -107 17 -29 41 -65 54 -80 21 -25 25 -26 37 -12 21 25 23 101 7 217 -9
59 -13 117 -10 130 11 43 34 68 62 68 40 0 113 -41 158 -87 35 -38 45 -43 89
-45 101 -4 157 4 179 25 10 11 25 14 44 11 16 -3 31 -1 35 4 7 12 -31 52 -50
52 -6 0 -19 10 -28 22 -13 20 -17 21 -25 8 -6 -8 -14 -21 -19 -27 -8 -13 -29
-17 -78 -15 -26 2 -34 8 -47 40 -9 20 -19 47 -22 60 -8 27 -25 29 -32 3 -20
-79 -157 63 -170 177 -2 17 1 32 6 32 6 0 7 9 2 22 -6 18 -2 29 21 52 22 21
28 35 24 52 -5 17 -3 22 8 18 10 -4 13 8 14 51 0 60 -14 78 -48 57 -14 -9 -16
-7 -12 14 4 23 -13 35 -20 14 -2 -7 -22 -2 -53 11 -33 15 -50 18 -53 10 -2 -6
-7 -9 -12 -6 -4 3 -6 -3 -3 -13 2 -10 -3 -24 -12 -32 -15 -12 -16 -11 -10 13
5 17 3 27 -4 27 -6 0 -11 -9 -11 -20 0 -24 -13 -26 -30 -5 -7 8 -24 15 -39 15
-20 0 -23 2 -11 10 13 8 13 10 -2 10 -9 0 -20 -5 -23 -11 -5 -6 -12 -4 -20 7
-8 12 -18 15 -31 9 -10 -5 -23 -9 -29 -9 -12 -1 -35 -45 -35 -69 0 -10 -5 -15
-11 -12 -5 4 -7 19 -4 34 5 26 4 27 -22 24 -20 -3 -34 2 -47 16 -18 20 -18 20
-52 -16 -19 -20 -34 -40 -34 -46 0 -6 -2 -8 -5 -5 -3 3 -1 27 6 52 8 34 9 50
1 58 -8 8 -9 5 -5 -11 4 -16 1 -21 -14 -21 -11 0 -29 -9 -41 -20 -12 -11 -26
-20 -32 -20 -6 0 -16 -11 -22 -25 -6 -14 -15 -25 -19 -25 -4 0 -10 -12 -13
-26 -4 -15 -9 -24 -11 -22 -5 4 6 46 21 82 6 15 4 17 -6 11 -10 -6 -12 -3 -7
15 l6 22 -20 -21 c-28 -30 -31 -26 -15 14 17 41 5 47 -30 14 l-21 -20 4 25 c5
22 2 24 -18 19 -20 -5 -22 -4 -13 8 19 24 24 49 11 49 -15 -1 -139 -119 -188
-180 -65 -81 -128 -177 -146 -221 -25 -65 -43 -96 -43 -78 0 21 73 171 111
225 16 24 77 94 135 154 100 105 118 130 92 130 -27 0 -58 -13 -52 -21 3 -5
-3 -9 -14 -9 -25 0 -85 -44 -150 -110 -28 -30 -52 -50 -52 -44 0 11 84 92 154
148 36 29 44 41 34 47 -10 7 -11 12 0 29 12 19 10 20 -60 21 -40 0 -67 3 -60
6 17 7 15 33 -3 33 -8 0 -15 6 -15 13 0 9 -10 12 -32 10 -25 -3 -30 -2 -18 6
17 12 3 14 -80 12 -39 -1 -43 0 -28 12 15 12 13 15 -20 27 -20 7 -50 15 -66
17 -16 2 -38 11 -49 21 -14 13 -37 17 -92 17 -77 0 -102 -11 -107 -48 -2 -15
-11 -23 -30 -25 -19 -2 -29 -11 -36 -31 -8 -22 -19 -30 -45 -35 -19 -4 -47
-16 -61 -27 -21 -16 -25 -26 -19 -47 3 -15 12 -33 20 -40 7 -7 12 -21 12 -30
-1 -15 -2 -15 -6 1 -2 10 -11 16 -20 15 -9 -2 -23 12 -34 31 -10 19 -24 40
-31 47 -7 6 -58 15 -113 19 -79 5 -104 10 -121 26 -11 10 -29 19 -40 19 -10 1
-44 9 -74 20 -71 24 -81 53 -23 69 21 6 49 11 64 11 14 0 30 5 35 10 12 12
233 54 241 46 12 -12 31 22 26 49 -4 19 -2 26 6 21 6 -4 11 -13 11 -20 0 -28
35 -42 116 -45 75 -3 91 2 105 29 1 3 -3 15 -10 28 -7 14 -8 22 -1 22 18 0 11
20 -7 20 -16 1 -16 2 1 15 19 14 19 15 0 21 -51 16 -74 27 -74 35 0 4 9 6 20
4 12 -2 30 -1 42 4 20 7 20 8 -7 33 -28 26 -27 48 2 48 13 0 15 9 11 45 -4 31
-2 45 6 45 7 0 18 21 24 47 13 47 13 48 -15 68 -15 11 -30 20 -33 20 -5 1 -72
35 -79 41 -2 2 2 10 9 19 20 24 -12 19 -44 -6 l-27 -21 -25 25 c-35 35 -63 41
-73 15 -11 -29 -26 -5 -26 41 0 34 -1 34 -155 112 -85 44 -163 79 -172 79 -9
0 -38 11 -64 25 -26 14 -57 25 -70 25 -20 0 -54 14 -104 42 -15 8 -25 12 -73
31 -16 5 -55 27 -88 48 -57 37 -109 56 -109 40z m1047 -533 c-3 -8 -6 -5 -6 6
-1 11 2 17 5 13 3 -3 4 -12 1 -19z m183 -582 c0 -3 -4 -8 -10 -11 -5 -3 -10
-1 -10 4 0 6 5 11 10 11 6 0 10 -2 10 -4z m190 -40 c-14 -8 -41 -17 -60 -21
-19 -3 -50 -13 -68 -21 -40 -18 -79 -16 -41 3 40 19 142 50 169 51 l25 1 -25
-13z m-1020 -70 c0 -3 -4 -8 -10 -11 -5 -3 -10 -1 -10 4 0 6 5 11 10 11 6 0
10 -2 10 -4z m-50 -41 c0 -2 -5 -16 -12 -30 -11 -25 -28 -34 -28 -15 0 6 5 10
10 10 6 0 10 9 10 20 0 11 5 20 10 20 6 0 10 -2 10 -5z m1560 -149 c0 -2 -13
-20 -30 -41 -16 -21 -30 -35 -30 -31 0 7 52 76 58 76 1 0 2 -2 2 -4z m50 -36
c0 -5 -5 -10 -11 -10 -5 0 -7 5 -4 10 3 6 8 10 11 10 2 0 4 -4 4 -10z m-422
-97 c-9 -10 -19 -28 -22 -40 -8 -25 -34 -49 -43 -39 -3 3 2 15 12 26 10 11 15
20 11 20 -3 0 6 14 21 30 14 17 29 28 31 25 3 -3 -2 -13 -10 -22z m-320 -14
c-3 -8 -7 -3 -11 10 -4 17 -3 21 5 13 5 -5 8 -16 6 -23z m-1053 -9 c-3 -5 -12
-10 -20 -10 -8 0 -17 5 -20 10 -4 6 5 10 20 10 15 0 24 -4 20 -10z m1782 -75
c-6 -19 -12 -33 -15 -31 -7 7 9 66 18 66 4 0 3 -16 -3 -35z m-1872 -36 c5 -7
-9 -10 -42 -8 -27 1 -54 -1 -60 -4 -7 -4 -14 -3 -17 2 -8 12 16 18 71 20 23 0
45 -4 48 -10z m1851 -36 c-10 -10 -19 5 -10 18 6 11 8 11 12 0 2 -7 1 -15 -2
-18z m-2131 7 c3 -5 2 -10 -4 -10 -5 0 -13 5 -16 10 -3 6 -2 10 4 10 5 0 13
-4 16 -10z m134 6 c-2 -2 -22 -6 -44 -9 -27 -4 -35 -3 -25 3 14 9 79 15 69 6z
m259 -65 c3 -8 -1 -12 -9 -9 -7 2 -15 10 -17 17 -3 8 1 12 9 9 7 -2 15 -10 17
-17z m1112 -5 c0 -22 -34 -76 -48 -76 -26 0 -43 15 -37 31 9 24 85 64 85 45z
m-1840 -10 c0 -3 -4 -8 -10 -11 -5 -3 -10 -1 -10 4 0 6 5 11 10 11 6 0 10 -2
10 -4z m760 -72 c0 -2 -4 -4 -8 -4 -13 0 -30 43 -24 59 3 9 10 1 18 -19 8 -18
14 -34 14 -36z m-775 16 c0 -7 -6 -15 -12 -17 -8 -3 -13 4 -13 17 0 13 5 20
13 18 6 -3 12 -11 12 -18z m2072 3 c-9 -9 -20 -13 -24 -9 -4 4 -1 11 7 16 25
16 35 11 17 -7z m-1297 -47 c0 -7 -21 -9 -57 -7 -42 3 -51 6 -33 11 39 9 90 7
90 -4z m26 -45 c-12 -19 -24 -12 -19 10 4 13 9 17 15 11 6 -6 7 -15 4 -21z
m-886 -10 c0 -28 -17 -35 -29 -13 -11 21 -6 32 16 32 7 0 13 -9 13 -19z m669
15 c-2 -2 -17 -6 -34 -10 -22 -5 -26 -4 -15 4 14 9 59 15 49 6z m235 -43 c4
-9 -11 -12 -57 -11 -34 1 -79 -2 -101 -7 -31 -6 -38 -5 -34 6 9 26 183 37 192
12z m64 -113 c7 -5 16 -18 59 -87 9 -16 -11 1 -45 37 -59 62 -81 107 -67 131
4 6 15 -7 27 -32 10 -24 22 -46 26 -49z m1100 38 c16 -16 15 -29 -2 -22 -8 3
-17 1 -21 -5 -3 -6 2 -11 12 -11 40 0 -25 -29 -88 -39 -35 -5 -71 -11 -79 -13
-8 -2 -16 2 -18 7 -1 6 10 12 25 13 32 4 63 28 63 49 0 10 5 11 19 3 13 -7 22
-7 26 0 3 5 0 10 -7 10 -9 0 -9 3 2 10 21 13 54 12 68 -2z m-1692 -36 c-4 -3
-14 2 -24 12 -16 18 -16 18 6 6 13 -6 21 -14 18 -18z m-576 -8 c0 -8 -5 -12
-10 -9 -6 4 -8 11 -5 16 9 14 15 11 15 -7z m-43 -60 c-3 -3 -12 -4 -19 -1 -8
3 -5 6 6 6 11 1 17 -2 13 -5z m1319 -81 c-7 -7 -26 7 -26 19 0 6 6 6 15 -2 9
-7 13 -15 11 -17z m-242 -71 c2 -4 -12 -6 -32 -4 -56 5 -62 10 -15 11 23 1 44
-3 47 -7z m412 -7 c16 -8 22 -15 13 -15 -8 0 -24 7 -35 15 -25 19 -14 19 22 0z
m68 -50 c3 -8 1 -15 -4 -15 -6 0 -10 7 -10 15 0 8 2 15 4 15 2 0 6 -7 10 -15z
m-1831 -26 c-8 -8 -16 -8 -30 0 -16 9 -14 10 12 11 21 0 26 -3 18 -11z"/>
<path d="M2840 1760 c-8 -5 -11 -12 -7 -16 4 -4 15 0 24 9 18 18 8 23 -17 7z"/>
<path d="M1804 3815 c18 -18 71 -42 141 -62 64 -19 255 -100 369 -157 82 -40
116 -48 116 -26 0 26 -145 93 -355 164 -60 20 -123 41 -140 46 -16 4 -55 18
-85 29 -65 25 -66 25 -46 6z"/>
<path d="M2487 3546 c18 -15 35 -35 38 -46 3 -10 29 -34 58 -51 49 -31 118
-69 124 -69 9 0 1 30 -10 42 -7 7 -16 21 -20 32 -4 10 -13 16 -21 13 -7 -3
-19 0 -25 6 -7 7 -15 13 -19 13 -28 6 -52 18 -52 28 0 6 -19 20 -43 31 -63 30
-64 30 -30 1z"/>
<path d="M5455 3470 c-3 -5 -1 -10 4 -10 6 0 11 5 11 10 0 6 -2 10 -4 10 -3 0
-8 -4 -11 -10z"/>
<path d="M4203 3307 c-18 -20 -17 -20 11 -13 16 4 42 13 58 19 l30 12 -41 1
c-29 1 -45 -4 -58 -19z"/>
<path d="M3576 3271 c-3 -5 27 -14 66 -21 114 -18 115 -19 121 -40 6 -23 25
-26 33 -5 4 8 -6 27 -21 43 -25 27 -33 29 -110 31 -46 1 -86 -3 -89 -8z"/>
<path d="M7010 3256 c0 -28 152 -119 255 -154 83 -28 172 -41 161 -24 -4 7
-11 12 -16 12 -5 0 -52 20 -104 45 -52 24 -135 61 -183 81 -48 19 -94 38 -100
41 -7 3 -13 2 -13 -1z"/>
<path d="M5216 3234 c-23 -23 -20 -30 4 -9 11 10 20 20 20 22 0 7 -9 2 -24
-13z"/>
<path d="M5583 3073 c9 -2 23 -2 30 0 6 3 -1 5 -18 5 -16 0 -22 -2 -12 -5z"/>
<path d="M4070 3060 c-31 -4 -65 -12 -77 -18 -12 -7 -29 -9 -39 -5 -11 4 -15
3 -10 -5 3 -6 2 -14 -4 -17 -12 -7 5 -35 22 -35 5 0 19 -9 31 -21 19 -17 23
-18 25 -5 6 28 28 17 46 -21 l17 -37 19 40 c10 21 30 49 44 62 19 18 23 28 17
45 -10 26 -17 27 -91 17z"/>
<path d="M5740 3025 c7 -8 27 -17 46 -21 19 -3 34 -10 34 -14 0 -10 47 -30 73
-30 38 0 107 -29 168 -71 83 -56 217 -115 230 -102 31 31 -57 100 -142 114
-33 5 -79 18 -102 29 -38 17 -303 110 -314 110 -3 0 0 -7 7 -15z m495 -175 c3
-5 2 -10 -4 -10 -5 0 -13 5 -16 10 -3 6 -2 10 4 10 5 0 13 -4 16 -10z"/>
<path d="M4805 2969 c-4 -6 -5 -13 -2 -16 7 -7 27 6 27 18 0 12 -17 12 -25 -2z"/>
<path d="M4882 2926 c-18 -6 -30 -15 -26 -19 12 -12 31 -8 55 13 27 22 19 24
-29 6z"/>
<path d="M4850 2874 c0 -8 5 -12 10 -9 6 4 8 11 5 16 -9 14 -15 11 -15 -7z"/>
<path d="M4080 2852 c0 -20 6 -35 15 -39 23 -8 23 -2 3 37 l-18 35 0 -33z"/>
<path d="M4817 2873 c-4 -3 -7 -11 -7 -17 0 -6 5 -5 12 2 6 6 9 14 7 17 -3 3
-9 2 -12 -2z"/>
<path d="M4788 2807 c-7 -7 -21 -16 -30 -20 -20 -7 -25 -37 -7 -37 12 0 31 20
50 53 12 20 6 22 -13 4z"/>
<path d="M3528 2747 c-16 -6 -28 -14 -28 -19 0 -13 13 -9 40 12 28 22 27 23
-12 7z"/>
<path d="M3543 2706 c-31 -20 -42 -36 -25 -36 11 1 67 49 62 53 -3 3 -20 -5
-37 -17z"/>
<path d="M3596 2675 c-23 -36 -20 -42 9 -15 26 24 32 40 16 40 -5 0 -16 -11
-25 -25z"/>
<path d="M3655 2660 c-14 -22 -25 -44 -25 -50 0 -5 -4 -10 -10 -10 -5 0 -10
-6 -10 -12 1 -15 54 45 76 85 23 42 -3 32 -31 -13z"/>
<path d="M3715 2672 c-6 -4 -17 -20 -25 -37 -8 -16 -16 -33 -18 -37 -2 -5 1
-8 6 -8 5 0 12 9 15 20 3 13 11 18 20 14 12 -4 16 1 15 25 -1 17 -1 31 -2 31
-1 0 -6 -4 -11 -8z"/>
<path d="M1840 2660 c0 -5 5 -10 10 -10 6 0 10 5 10 10 0 6 -4 10 -10 10 -5 0
-10 -4 -10 -10z"/>
<path d="M3787 2621 c-4 -17 -3 -21 5 -13 5 5 8 16 6 23 -3 8 -7 3 -11 -10z"/>
<path d="M3701 2594 c0 -11 3 -14 6 -6 3 7 2 16 -1 19 -3 4 -6 -2 -5 -13z"/>
<path d="M1060 2230 c0 -5 -7 -10 -15 -10 -8 0 -12 -6 -9 -14 3 -7 -7 -23 -22
-35 -18 -14 -24 -25 -17 -32 20 -20 60 17 66 61 2 8 6 21 10 28 5 7 4 12 -2
12 -6 0 -11 -4 -11 -10z"/>
<path d="M4380 2154 c0 -3 8 -18 19 -32 10 -15 24 -44 32 -64 19 -55 23 -39 5
24 -9 30 -25 59 -36 66 -11 7 -20 9 -20 6z"/>
<path d="M4875 2150 c-12 -20 19 -50 53 -50 36 0 82 -25 82 -45 0 -16 66 -101
152 -194 37 -40 68 -77 68 -81 0 -5 54 -58 120 -119 82 -75 132 -113 157 -120
45 -13 55 -6 26 17 -11 9 -35 42 -52 73 -17 31 -50 76 -74 101 -23 25 -71 81
-106 124 -89 108 -180 187 -290 251 -91 52 -124 63 -136 43z"/>
<path d="M3620 2049 c0 -5 5 -7 10 -4 6 3 10 8 10 11 0 2 -4 4 -10 4 -5 0 -10
-5 -10 -11z"/>
<path d="M4710 2023 c1 -16 27 -42 36 -35 5 4 1 -2 -9 -14 -9 -11 -17 -28 -17
-36 0 -9 -6 -19 -12 -22 -7 -3 -2 -3 12 0 22 6 67 50 64 64 -8 38 -19 50 -45
50 -16 0 -29 -3 -29 -7z"/>
<path d="M3720 1990 c14 -4 32 -8 40 -9 13 -1 13 0 0 9 -8 5 -26 9 -40 9 l-25
-1 25 -8z"/>
<path d="M1161 1971 c-8 -6 -3 -10 18 -14 46 -9 45 -10 50 4 2 8 -2 10 -14 5
-10 -3 -23 -2 -29 3 -6 6 -18 6 -25 2z"/>
<path d="M3030 1910 c0 -5 4 -10 9 -10 6 0 13 5 16 10 3 6 -1 10 -9 10 -9 0
-16 -4 -16 -10z"/>
<path d="M3690 1896 c0 -2 7 -7 16 -10 8 -3 12 -2 9 4 -6 10 -25 14 -25 6z"/>
<path d="M3385 1881 c-6 -11 9 -23 19 -14 9 9 7 23 -3 23 -6 0 -12 -4 -16 -9z"/>
<path d="M3342 1749 c5 -14 68 -41 68 -30 0 13 -26 32 -33 24 -4 -3 -7 -1 -7
5 0 7 -7 12 -16 12 -9 0 -14 -5 -12 -11z"/>
<path d="M3828 1743 c7 -3 16 -2 19 1 4 3 -2 6 -13 5 -11 0 -14 -3 -6 -6z"/>
<path d="M8023 1674 c-3 -8 -1 -20 6 -27 8 -8 11 -8 11 0 0 6 3 18 6 27 3 9 1
16 -5 16 -7 0 -14 -7 -18 -16z"/>
<path d="M7919 1645 c-3 -2 -38 -11 -78 -20 -40 -8 -103 -27 -139 -42 -74 -29
-183 -105 -161 -111 8 -3 26 -16 42 -30 31 -30 36 -16 7 21 l-20 25 32 20 c39
23 107 45 208 68 72 16 130 45 130 65 0 9 -13 12 -21 4z"/>
<path d="M3883 1617 c-13 -6 -23 -16 -23 -24 0 -8 5 -11 10 -8 6 4 2 -11 -7
-32 -10 -21 -21 -39 -25 -41 -15 -7 -8 -50 12 -75 11 -14 20 -29 20 -34 0 -29
132 -123 173 -123 15 0 57 -69 57 -94 0 -9 7 -19 15 -22 8 -4 15 -12 15 -20 0
-8 7 -14 15 -14 8 0 15 -7 15 -15 0 -8 6 -15 13 -15 6 0 37 -20 67 -45 81 -66
109 -61 86 16 -20 65 -66 150 -148 275 -70 106 -75 111 -124 127 -28 9 -72 28
-97 44 -42 25 -46 31 -49 69 -3 39 -4 41 -25 31z"/>
<path d="M3186 1507 c3 -10 9 -15 12 -12 3 3 0 11 -7 18 -10 9 -11 8 -5 -6z"/>
<path d="M3034 1416 c-4 -11 -2 -21 7 -27 18 -11 24 5 10 28 -9 17 -10 17 -17
-1z"/>
<path d="M3090 1360 c0 -5 5 -10 10 -10 6 0 10 5 10 10 0 6 -4 10 -10 10 -5 0
-10 -4 -10 -10z"/>
<path d="M7651 1339 c-1 -17 12 -39 34 -62 20 -21 38 -37 41 -37 5 0 -29 59
-58 101 l-17 24 0 -26z"/>
<path d="M3001 1294 c0 -11 3 -14 6 -6 3 7 2 16 -1 19 -3 4 -6 -2 -5 -13z"/>
<path d="M3810 1170 c-19 -12 -8 -54 15 -58 73 -11 81 -20 38 -43 -36 -18 -70
-49 -55 -49 7 0 12 -5 12 -11 0 -6 -17 -9 -42 -7 -25 2 -42 8 -41 14 1 6 -17
15 -40 19 -23 4 -36 9 -29 12 24 9 11 23 -22 23 -50 0 -87 -16 -80 -35 4 -9 1
-15 -9 -15 -8 0 -17 -9 -20 -19 -7 -27 -61 -37 -92 -17 -32 21 -37 20 -68 -7
-30 -25 -35 -58 -12 -77 8 -7 15 -18 15 -24 0 -7 11 -23 25 -36 15 -14 23 -30
20 -40 -7 -23 19 -43 56 -43 25 0 29 -4 29 -29 0 -32 -23 -47 -45 -28 -12 10
-22 9 -50 -4 -19 -9 -35 -22 -35 -28 0 -7 -19 -9 -57 -5 -78 8 -115 0 -108
-24 5 -16 1 -19 -29 -19 -25 0 -36 -4 -36 -15 0 -8 4 -15 8 -15 4 0 8 -8 9
-17 3 -31 30 -88 52 -107 19 -17 19 -20 5 -31 -14 -10 -14 -14 0 -46 9 -19 20
-41 25 -49 36 -61 42 -196 12 -278 -17 -47 -18 -54 -4 -59 8 -3 117 -3 242 1
256 8 719 8 732 0 12 -7 49 5 49 16 0 5 -14 17 -31 25 -23 12 -29 21 -24 36 4
12 1 21 -9 25 -21 8 -22 64 -1 64 8 0 20 9 27 20 7 11 23 20 35 20 30 0 40 20
14 27 -33 9 -24 23 14 23 40 0 46 14 13 31 -21 11 -21 12 -3 25 18 13 17 14
-8 14 -16 0 -40 -9 -55 -20 -24 -17 -35 -18 -92 -11 -60 8 -66 7 -82 -12 -9
-12 -14 -25 -12 -29 2 -3 0 -9 -6 -13 -6 -4 -8 -10 -5 -14 8 -14 -67 -40 -150
-52 -190 -28 -197 -28 -238 -2 -21 13 -41 32 -44 41 -3 9 -15 27 -26 39 -19
21 -19 21 9 36 16 8 55 18 87 22 51 7 89 24 55 26 -41 2 -71 9 -85 21 -14 11
-13 13 8 19 13 4 74 8 134 10 61 1 92 4 71 6 -35 4 -66 22 -66 38 0 15 26 32
42 27 10 -2 18 1 18 7 0 6 8 11 18 11 16 1 16 1 0 14 -25 18 -23 24 10 28 19
2 27 9 27 23 0 12 8 21 20 23 33 6 42 22 12 22 -37 0 -26 21 23 42 40 16 54
38 25 38 -21 0 -19 18 3 23 10 3 6 5 -10 6 -47 2 -31 16 30 27 51 10 59 9 76
-8 21 -22 22 -20 -21 -42 -18 -9 -33 -18 -33 -19 0 -1 29 -1 64 0 51 2 67 -2
80 -16 16 -17 15 -18 -9 -14 -18 4 -25 1 -25 -11 0 -10 9 -16 25 -16 25 0 35
-15 13 -22 -6 -2 -12 -12 -14 -21 -2 -14 7 -17 57 -17 69 0 76 -12 18 -29 -36
-11 -40 -15 -35 -36 7 -27 -21 -49 -48 -39 -11 4 -16 1 -16 -10 0 -11 8 -16
28 -14 62 4 82 -1 82 -22 0 -11 3 -20 8 -21 75 -11 109 1 76 25 -16 12 -14 14
23 21 23 3 47 13 54 21 6 8 8 14 4 14 -4 0 -2 7 5 15 13 15 49 21 51 8 0 -5 2
-16 4 -25 2 -13 -8 -21 -38 -30 -41 -12 -42 -12 -11 -16 41 -4 94 16 74 28
-12 7 -11 10 5 16 11 5 20 3 23 -4 4 -13 82 -17 82 -4 0 4 -9 13 -21 20 -16
11 -18 16 -9 27 18 21 -11 30 -51 16 -40 -14 -59 -14 -59 -1 0 6 9 10 20 10
11 0 20 4 20 9 0 5 -9 13 -20 16 -24 7 -27 25 -5 25 19 0 65 47 65 66 0 8 -8
14 -19 14 -10 0 -29 8 -42 19 -13 10 -29 16 -36 14 -6 -2 -14 1 -18 6 -3 7 3
11 14 11 12 0 21 4 21 10 0 10 -122 7 -150 -4 -19 -7 -30 1 -53 37 -10 15 -30
33 -45 38 -40 15 -61 38 -55 60 6 23 39 43 54 34 5 -4 21 -4 35 -1 34 9 32 44
-3 52 -78 17 -132 35 -143 49 -7 8 -18 15 -24 15 -12 0 -20 8 -100 94 -25 27
-55 50 -68 51 -13 1 -29 3 -36 4 -9 1 -11 8 -7 21 4 13 2 21 -7 22 -43 5 -68
4 -78 -2z m510 -520 c4 0 8 -11 8 -25 0 -29 -23 -34 -32 -7 -3 9 -9 23 -12 31
-5 10 -2 12 10 8 10 -4 21 -7 26 -7z m106 -2 c2 -3 -1 -10 -8 -15 -16 -12 -81
3 -73 18 6 9 71 7 81 -3z m54 -8 c0 -5 -7 -10 -15 -10 -8 0 -15 5 -15 10 0 6
7 10 15 10 8 0 15 -4 15 -10z m-784 -518 c6 -4 13 -18 16 -32 3 -14 9 -33 13
-42 9 -23 -17 -24 -35 -3 -10 12 -10 19 -2 27 8 8 6 17 -5 34 -15 23 -9 31 13
16z m479 -62 c-8 -13 -35 -13 -35 0 0 6 9 10 21 10 11 0 17 -4 14 -10z m-87
-17 c2 -8 -5 -13 -17 -13 -21 0 -35 13 -24 24 10 10 36 3 41 -11z"/>
<path d="M7042 1132 c-13 -10 -20 -21 -16 -25 10 -10 194 -9 194 1 0 5 -24 14
-52 20 -29 6 -64 13 -78 17 -16 3 -33 -1 -48 -13z"/>
<path d="M3315 1130 c-10 -16 14 -38 45 -42 21 -2 25 1 25 22 0 21 -5 26 -32
28 -17 2 -34 -2 -38 -8z"/>
<path d="M7775 1091 c-6 -36 -2 -45 45 -111 29 -39 54 -70 55 -68 6 5 -79 218
-87 218 -3 0 -9 -18 -13 -39z"/>
<path d="M3068 1023 c19 -8 14 -33 -7 -33 -28 0 -37 -20 -12 -27 21 -5 30 -23
11 -23 -18 0 -11 -20 8 -20 16 -1 16 -1 0 -14 -24 -18 -23 -33 3 -47 15 -8 18
-14 10 -22 -15 -15 -14 -27 2 -27 6 0 32 -11 57 -24 29 -15 67 -25 105 -27
l60 -4 3 30 c3 28 4 57 2 112 0 29 -45 74 -65 67 -9 -4 -15 0 -15 10 0 9 -6
16 -14 16 -7 0 -25 9 -39 20 -18 14 -39 20 -74 19 -26 0 -42 -3 -35 -6z"/>
<path d="M2470 1000 c0 -5 5 -10 11 -10 5 0 7 5 4 10 -3 6 -8 10 -11 10 -2 0
-4 -4 -4 -10z"/>
<path d="M6741 936 c-10 -12 0 -23 51 -59 124 -88 139 -84 47 11 -62 64 -78
72 -98 48z"/>
<path d="M7906 785 c5 -68 43 -250 50 -242 6 5 -33 246 -45 282 -8 24 -9 15
-5 -40z"/>
<path d="M4338 743 c6 -2 18 -2 25 0 6 3 1 5 -13 5 -14 0 -19 -2 -12 -5z"/>
<path d="M7120 719 c0 -5 16 -31 35 -56 41 -54 46 -44 9 21 -24 43 -44 59 -44
35z"/>
<path d="M4538 693 c7 -3 16 -2 19 1 4 3 -2 6 -13 5 -11 0 -14 -3 -6 -6z"/>
<path d="M7390 680 c0 -5 5 -10 10 -10 6 0 10 5 10 10 0 6 -4 10 -10 10 -5 0
-10 -4 -10 -10z"/>
<path d="M6375 650 c4 -6 11 -8 16 -5 14 9 11 15 -7 15 -8 0 -12 -5 -9 -10z"/>
<path d="M6337 633 c-12 -11 -8 -20 19 -38 18 -12 29 -14 35 -6 5 6 6 9 3 6
-8 -5 -34 20 -34 34 0 12 -13 15 -23 4z"/>
<path d="M2554 605 c-10 -8 -14 -15 -8 -15 6 0 17 7 24 15 16 19 9 19 -16 0z"/>
<path d="M7340 569 c0 -9 10 -24 21 -35 22 -19 22 -19 11 1 -6 11 -16 27 -22
35 -8 13 -10 13 -10 -1z"/>
<path d="M7950 509 c0 -11 4 -18 10 -14 5 3 7 12 3 20 -7 21 -13 19 -13 -6z"/>
<path d="M4460 460 c0 -5 5 -10 10 -10 6 0 10 5 10 10 0 6 -4 10 -10 10 -5 0
-10 -4 -10 -10z"/>
<path d="M3825 430 c3 -5 10 -10 16 -10 5 0 9 5 9 10 0 6 -7 10 -16 10 -8 0
-12 -4 -9 -10z"/>
<path d="M4665 400 l-40 -7 37 -2 c20 0 40 4 43 9 3 6 5 9 3 9 -2 -1 -21 -5
-43 -9z"/>
<path d="M4427 340 c-20 -4 -41 -10 -45 -14 -7 -8 106 1 173 14 36 7 33 8 -25
8 -36 0 -82 -4 -103 -8z"/>
<path d="M4640 330 c0 -5 22 -10 49 -10 28 0 53 5 56 10 4 6 -15 10 -49 10
-31 0 -56 -4 -56 -10z"/>
<path d="M7130 292 c0 -5 12 -19 27 -33 l26 -24 -23 33 c-25 33 -30 38 -30 24z"/>
<path d="M4415 270 c-3 -5 -3 -10 2 -10 20 -1 -24 -20 -45 -20 -15 0 -22 -5
-19 -12 2 -7 15 -12 27 -10 32 3 130 -38 130 -55 0 -20 30 -28 41 -12 15 24
10 46 -11 52 -11 3 -20 12 -20 21 0 9 -12 18 -27 22 -54 11 -59 17 -23 24 l35
7 -42 2 c-23 0 -45 -3 -48 -9z"/>
<path d="M7950 231 c0 -6 5 -13 10 -16 6 -3 10 1 10 9 0 9 -4 16 -10 16 -5 0
-10 -4 -10 -9z"/>
<path d="M7972 175 c0 -16 2 -22 5 -12 2 9 2 23 0 30 -3 6 -5 -1 -5 -18z"/>
<path d="M5660 169 c-8 -5 -40 -18 -70 -29 -30 -11 -91 -40 -135 -65 -44 -25
-90 -48 -102 -52 -13 -3 -23 -10 -23 -15 0 -7 34 -9 93 -6 69 3 100 9 122 23
33 22 155 138 155 148 0 10 -22 8 -40 -4z"/>
<path d="M2690 40 c0 -5 5 -10 11 -10 5 0 7 5 4 10 -3 6 -8 10 -11 10 -2 0 -4
-4 -4 -10z"/>
</g>
</svg>
